<svg width="526" height="480" viewBox="0 0 526 480" fill="none" xmlns="http://www.w3.org/2000/svg">
<path d="M5.93181 193.709C36.0625 285.826 114.855 334.242 243.958 343.83C373.06 353.419 467.082 288.282 512.502 208.967C543.825 154.286 525.823 49.3987 390.272 89.8199C342.425 104.09 310.696 30.3099 210.596 9.16444C99.0509 -14.3799 -28.3193 89.0085 5.93181 193.709Z" fill="#F4EAC8"/>
<path d="M445.541 16.7867C445.412 16.7888 445.286 16.7436 445.188 16.6597C444.71 16.2489 444.211 15.8639 443.692 15.5061C443.198 15.1533 442.673 14.8393 442.133 14.5395C441.425 14.1451 440.694 13.7918 439.946 13.4812C437.452 12.4462 434.794 11.8644 432.096 11.7631C432.005 11.7596 431.917 11.7325 431.839 11.6847C431.762 11.6368 431.698 11.5696 431.654 11.4898C431.61 11.4099 431.587 11.32 431.588 11.2289C431.589 11.1377 431.613 11.0483 431.659 10.9694C433.144 8.39763 435.61 7.46983 438.789 8.28122C438.866 8.30045 438.937 8.33674 438.998 8.38743C439.059 8.43811 439.108 8.50189 439.141 8.57402C439.297 8.9268 439.445 9.27958 439.582 9.68527C439.935 10.6836 440.493 10.793 441.42 10.98L441.879 11.0752C442.67 11.2231 443.403 11.5898 443.996 12.1335C444.864 12.9414 445.53 14.2502 446.028 16.1164C446.049 16.1949 446.052 16.2772 446.036 16.3569C446.02 16.4366 445.986 16.5116 445.937 16.5761C445.887 16.6406 445.823 16.6928 445.751 16.7287C445.678 16.7646 445.597 16.7832 445.516 16.7831L445.541 16.7867Z" fill="url(#paint0_linear_1_2020)"/>
<path d="M395.591 36.0094C395.131 36.0067 394.673 35.951 394.226 35.8436C393.854 35.758 393.508 35.5855 393.215 35.3402C392.923 35.095 392.692 34.7839 392.543 34.4325C391.725 32.6369 392.402 29.6418 392.868 28.7598C393.132 28.2589 393.764 27.8638 394.498 27.4087C395.51 26.7772 396.657 26.0646 396.657 25.165C396.657 24.8123 396.639 24.3819 396.618 23.8809C396.519 21.6161 396.385 18.5152 397.694 17.1535C398.477 16.3385 399.458 16.0493 400.516 15.7424C401.761 15.4499 402.933 14.9048 403.959 14.1407C404.837 13.3828 405.593 12.4953 406.203 11.509C407.222 10.0309 408.182 8.63389 410.083 8.33403C411.046 8.20651 412.024 8.28957 412.952 8.57745C413.971 8.8385 414.486 8.97256 415.322 7.98125C415.551 7.70961 415.767 7.44503 415.975 7.18045C416.109 7.00406 416.25 6.82767 416.388 6.65481L416.599 6.39023C416.733 6.2209 416.874 6.03745 417.023 5.88576C417.575 5.18705 418.278 4.62273 419.08 4.23531C419.881 3.84789 420.761 3.64746 421.651 3.64915C422.096 3.63553 422.542 3.65203 422.985 3.69854C423.114 3.71246 423.234 3.77382 423.322 3.87084C423.409 3.96786 423.457 4.09369 423.457 4.22418V4.27709C423.475 4.93175 423.719 5.55997 424.149 6.05409C424.579 6.54822 425.167 6.87749 425.813 6.98549C426.459 7.09349 427.122 6.9735 427.689 6.64607C428.257 6.31864 428.692 5.80416 428.922 5.19078C428.956 5.08427 429.024 4.99196 429.116 4.92818C429.208 4.8644 429.318 4.8327 429.43 4.83801C430.03 4.84228 430.63 4.80338 431.225 4.72159C434.249 4.31237 436.341 4.86976 437.808 6.48548C437.88 6.56392 437.927 6.6623 437.942 6.76775C437.958 6.87321 437.941 6.98082 437.894 7.07651C437.847 7.17219 437.772 7.25149 437.68 7.30402C437.587 7.35656 437.48 7.37989 437.374 7.37095C435.759 7.24042 431.786 7.37095 429.797 11.5231C429.757 11.6072 429.695 11.6792 429.618 11.7318C429.541 11.7845 429.452 11.8159 429.359 11.823C426.141 12.0839 422.989 12.8792 420.032 14.176C418.474 14.8508 416.967 15.6372 415.523 16.529C413.513 17.7648 411.633 19.2022 409.914 20.8188C409.501 21.2104 409.113 21.5985 408.764 21.9724C408.023 22.7497 407.34 23.581 406.721 24.4595C406.482 24.8123 406.27 25.1262 406.09 25.4331L405.219 26.7843C405.067 27.0277 404.915 27.2676 404.764 27.4898L404.682 27.6168L404.658 27.6592L404.637 27.6944C404.252 28.3012 403.885 28.8621 403.532 29.4019C403.18 29.9416 402.827 30.4602 402.474 30.9435C402.333 31.1446 402.188 31.3422 402.051 31.5327C401.913 31.7232 401.846 31.8114 401.744 31.9419C401.546 32.2029 401.345 32.4569 401.148 32.6968L400.869 33.0284C400.466 33.499 400.031 33.941 399.567 34.3514L399.355 34.5313L399.331 34.5524H399.31C399.225 34.623 399.14 34.6888 399.056 34.75L399.01 34.7853L398.791 34.9405L398.717 34.9899C398.615 35.0604 398.509 35.1275 398.403 35.191C398.162 35.3355 397.911 35.4628 397.652 35.572L397.426 35.6602C397.321 35.701 397.214 35.7363 397.105 35.766L396.946 35.8118C396.896 35.8282 396.846 35.8412 396.794 35.8507L396.643 35.8859L396.396 35.9283C396.329 35.9283 396.24 35.9494 396.149 35.96C396.074 35.9697 395.998 35.9756 395.923 35.9777C395.817 35.9988 395.707 36.0094 395.591 36.0094Z" fill="url(#paint1_linear_1_2020)"/>
<path d="M415.238 16.595C415.167 16.595 415.096 16.5806 415.031 16.5527C414.965 16.5248 414.906 16.484 414.857 16.4328C414.422 15.9776 414.131 15.4049 414.019 14.7856C413.907 14.1664 413.979 13.528 414.227 12.9494C414.475 12.3709 414.886 11.8778 415.412 11.5313C415.937 11.1847 416.552 11 417.182 11C417.923 11.0015 418.641 11.258 419.215 11.7263C419.789 12.1946 420.185 12.8462 420.335 13.5717C420.36 13.6912 420.342 13.8154 420.286 13.9234C420.229 14.0314 420.137 14.1165 420.025 14.1644C418.466 14.839 416.958 15.6254 415.513 16.5174C415.43 16.5681 415.335 16.5949 415.238 16.595Z" fill="url(#paint2_linear_1_2020)"/>
<path d="M402.044 31.1679C401.944 31.168 401.846 31.1399 401.762 31.0867C398.724 29.1782 398.043 26.55 399.744 23.2833C401.017 20.8139 402.838 19.2264 404.87 18.7642C406.545 18.3832 408.267 18.8101 409.844 20.0025C409.905 20.0487 409.956 20.1079 409.993 20.1758C410.029 20.2437 410.05 20.3188 410.055 20.3957C410.059 20.4727 410.046 20.5497 410.018 20.6213C409.989 20.6929 409.946 20.7574 409.89 20.8103C409.477 21.2019 409.089 21.59 408.74 21.9639C407.998 22.7412 407.315 23.5725 406.697 24.451C406.457 24.8038 406.246 25.1177 406.066 25.4247L405.219 26.7829C405.067 27.0263 404.916 27.2662 404.764 27.4884L404.683 27.6154L404.658 27.6577L404.637 27.693C404.252 28.2998 403.885 28.8607 403.533 29.4005C403.18 29.9402 402.827 30.4588 402.474 30.9421C402.426 31.0114 402.361 31.068 402.287 31.1073C402.212 31.1466 402.128 31.1674 402.044 31.1679Z" fill="url(#paint3_linear_1_2020)"/>
<path d="M406.796 24.0412C406.784 23.9695 406.757 23.9012 406.717 23.8405C406.677 23.7799 406.625 23.7281 406.564 23.6884C405.671 23.1134 405.213 22.5172 405.273 22.0127C405.281 21.9387 405.275 21.8636 405.253 21.7924C405.23 21.7211 405.194 21.6554 405.144 21.5994C405.095 21.5435 405.034 21.4986 404.966 21.4676C404.899 21.4367 404.825 21.4205 404.75 21.4201C404.244 21.3878 403.738 21.486 403.28 21.7053C402.822 21.9245 402.429 22.2575 402.136 22.6724C401.834 23.1712 401.658 23.7366 401.625 24.3191C401.592 24.9015 401.702 25.4833 401.946 26.0132C401.993 26.1239 402.076 26.2153 402.182 26.2723C402.288 26.3294 402.41 26.3488 402.528 26.3272C403.225 26.2754 403.916 26.4841 404.468 26.9128C404.558 26.9768 404.665 27.0114 404.775 27.0116H404.877C404.949 26.9987 405.018 26.971 405.078 26.9303C405.139 26.8897 405.191 26.8368 405.23 26.7752L406.084 25.4206C406.264 25.1172 406.475 24.7891 406.715 24.4504C406.756 24.3913 406.784 24.3245 406.798 24.2541C406.812 24.1838 406.811 24.1113 406.796 24.0412Z" fill="url(#paint4_linear_1_2020)"/>
<path d="M403.103 29.6446C403.044 29.6448 402.986 29.6353 402.93 29.6163C401.353 29.066 400.616 28.0041 400.905 26.7059C400.968 26.3494 401.141 26.0216 401.4 25.7685C401.659 25.5154 401.99 25.3498 402.348 25.2948C403.327 25.1917 404.308 25.4641 405.093 26.0568C405.202 26.1344 405.277 26.2503 405.304 26.3812C405.331 26.512 405.307 26.6482 405.238 26.7624C405.086 27.0093 404.931 27.2492 404.779 27.4856L404.698 27.6126L404.673 27.6549L404.652 27.6902C404.267 28.2969 403.9 28.8579 403.548 29.3976C403.5 29.4728 403.435 29.5348 403.357 29.578C403.279 29.6211 403.192 29.644 403.103 29.6446Z" fill="url(#paint5_linear_1_2020)"/>
<path d="M406.277 24.6654C406.176 24.6653 406.077 24.6359 405.991 24.5807C404.386 23.5471 404.143 22.5452 404.228 21.889C404.301 21.4988 404.468 21.1322 404.714 20.8203C404.959 20.5083 405.277 20.2602 405.639 20.0969C406.595 19.6206 407.928 20.0969 408.814 21.2681C408.89 21.3678 408.928 21.4914 408.922 21.6168C408.915 21.7422 408.864 21.8612 408.778 21.9525C408.037 22.7241 407.355 23.5495 406.736 24.4219C406.687 24.4985 406.619 24.5611 406.538 24.6038C406.458 24.6464 406.368 24.6676 406.277 24.6654Z" fill="url(#paint6_linear_1_2020)"/>
<path d="M445.884 15.8481C444.232 14.4455 442.367 13.3142 440.359 12.4967C437.157 11.166 433.703 10.5484 430.238 10.687C426.275 10.8796 422.388 11.8518 418.801 13.548C416.966 14.398 415.204 15.3986 413.534 16.5396C409.925 19.009 406.877 21.99 405.166 24.8757C404.708 25.6483 404.242 26.3891 403.78 27.07L403.741 27.137C399.899 33.173 397.744 35.5754 394.463 34.8064C394.247 34.7563 394.047 34.6543 393.88 34.5092C393.713 34.3641 393.584 34.1803 393.504 33.9738C392.844 32.5239 393.475 29.8569 393.803 29.236C393.934 28.9856 394.53 28.6151 395.056 28.2871C396.241 27.5498 397.712 26.629 397.712 25.1438C397.712 24.791 397.695 24.3289 397.673 23.8174C397.589 21.8595 397.458 18.9032 398.453 17.866C399.042 17.2557 399.822 17.0299 400.813 16.7407C402.191 16.4151 403.486 15.8073 404.616 14.9556C405.58 14.1322 406.413 13.1662 407.085 12.0911C408.006 10.7505 408.803 9.59339 410.236 9.38173C411.058 9.27642 411.893 9.35104 412.684 9.60045L413.181 9.72392C413.986 9.26521 414.708 8.67631 415.319 7.9812C415.549 7.71309 415.76 7.44498 415.968 7.18039L416.385 6.65476C416.453 6.56774 416.523 6.47955 416.596 6.39018C416.73 6.22084 416.871 6.0374 417.02 5.8857L417.2 5.68462C412.871 5.24718 405.442 7.57198 399.293 12.9589C394.939 16.7724 389.75 23.4328 389.75 33.5082C389.75 38.3835 398.284 39.6359 410.095 41.3645C414.088 41.9501 418.209 42.5569 422.47 43.3683C425.645 43.9715 428.781 44.6206 431.819 45.2486C439.791 46.9031 445.284 47.9967 448.399 47.9967C449.546 47.9967 450.368 47.8486 450.869 47.5275C453.5 45.8518 453.5 42.3523 453.5 39.262C453.5 39.0432 453.5 38.7363 453.525 38.3624C453.656 34.5453 454.068 22.8578 445.884 15.8481Z" fill="url(#paint7_linear_1_2020)"/>
<path d="M257.447 311.35C257.535 309.233 258.096 300.142 258.153 298.618C258.417 291.781 310.657 276.041 345.458 246.263C380.26 216.485 378.157 200.645 378.157 200.645L257.193 192.478V192.45L255.937 192.394L254.682 192.309V192.337L133.58 186.777C133.58 186.777 129.957 202.3 161.696 235.845C193.436 269.391 243.869 290.956 243.474 297.786C243.386 299.31 243.068 308.401 242.948 310.528C242.645 315.95 176.905 337.579 143.465 371.089C113.063 401.552 118.273 437.009 118.273 437.009L242.267 445.688V445.726L243.678 445.786L245.089 445.885V445.846L369.235 451.24C369.235 451.24 377.843 416.562 350.538 382.83C320.52 345.721 257.229 316.765 257.447 311.35Z" fill="url(#paint8_linear_1_2020)"/>
<path d="M378.193 200.646C377.601 212.923 322.356 219.766 254.802 215.935C187.249 212.104 132.967 199.048 133.563 186.775C134.16 174.502 189.401 167.654 256.954 171.485C324.508 175.316 378.786 188.355 378.193 200.646Z" fill="url(#paint9_linear_1_2020)"/>
<path d="M84.6723 93.4749C84.4289 99.4121 83.4094 103.444 85.8859 103.931C88.3624 104.418 93.3648 101.296 93.3648 101.296L90.3732 92.9492L84.6723 93.4749Z" fill="url(#paint10_linear_1_2020)"/>
<path d="M150.796 86.5443C146.263 91.6279 143.497 98.313 150.091 97.7521L156.554 85.4648L150.796 86.5443Z" fill="url(#paint11_linear_1_2020)"/>
<path d="M209.075 149.783L201.762 185.181L171.832 181.06L130.702 175.416L100.522 119.211L86.2451 92.6153L108.216 90.541C108.216 90.541 113.861 100.419 120.673 112.413C131.108 130.758 144.309 153.977 144.309 154.178C144.309 154.38 164.675 152.965 182.564 151.709C186.663 151.42 190.632 151.134 194.206 150.877C202.111 150.312 208.024 149.882 208.952 149.818L209.075 149.783Z" fill="#F9CBA2"/>
<path d="M208.941 149.793L205.999 161.512L193.68 160.193C193.68 160.193 193.359 155.222 194.195 150.855C202.101 150.29 208.017 149.86 208.941 149.793Z" fill="#E5AD83"/>
<path d="M360.491 179.068C362.572 180.444 369.497 178.362 369.497 178.362L366.65 172.891C366.65 172.891 360.417 175.554 360.491 179.068Z" fill="url(#paint12_linear_1_2020)"/>
<path d="M276.476 155.617C283.958 155.906 287.084 156.128 293.836 148.992C300.588 141.855 307.707 145.76 308.653 164.362C309.598 182.964 312.138 198.433 309.598 198.871C307.058 199.308 248.585 197.879 248.585 197.879C248.585 197.879 240.472 191.731 244.793 177.856C249.845 161.572 264.016 152.812 276.476 155.617Z" fill="url(#paint13_linear_1_2020)"/>
<path d="M289.61 171.699C289.134 173.837 291.06 175.58 296.846 176.063L297.403 167.621C297.403 167.621 291.717 167.078 289.61 171.699Z" fill="url(#paint14_linear_1_2020)"/>
<path d="M361.408 171.701L373.364 198.039L387.062 187.706L376.609 163.541L361.408 171.701Z" fill="#E5AD83"/>
<path d="M387.065 123.798L378.732 162.402L377.254 169.243C367.196 171.85 360.49 179.054 360.49 179.054L359.252 177.194L359.001 176.817C358.596 178.03 358.208 179.382 357.841 180.793C356.514 185.876 355.435 191.764 354.666 195.07C353.674 199.303 303.728 197.751 303.728 197.751C303.728 197.751 301.894 126.282 304.875 122.803C316.919 114.982 344.739 117.589 359.509 118.707C364.026 119.059 368.52 119.648 372.975 120.471C377.728 121.324 382.432 122.434 387.065 123.798Z" fill="url(#paint15_linear_1_2020)"/>
<path d="M387.065 123.796L378.732 162.401L377.254 169.241C367.197 171.848 360.49 179.052 360.49 179.052L359.252 177.193C359.686 174.726 360.396 172.317 361.369 170.01C368.191 153.429 377.473 132.446 372.964 120.477C377.721 121.326 382.428 122.435 387.065 123.796Z" fill="url(#paint16_linear_1_2020)"/>
<path d="M378.733 162.416L377.255 169.256C367.197 171.863 360.491 179.067 360.491 179.067L359.002 176.831C359.492 175.169 360.357 172.728 361.369 170.025C367.186 165.559 374.09 162.532 378.733 162.416Z" fill="url(#paint17_linear_1_2020)"/>
<path d="M384.592 222.221C382.189 222.017 382.013 216.88 382.013 216.88C382.013 216.88 379.896 222.878 378.619 223.583C375.797 225.058 375.395 221.925 375.395 221.925C374.005 223.019 372.322 222.278 372.153 220.913C371.984 219.547 373.289 217.713 373.289 217.032C373.289 216.351 372.883 211.695 372.883 211.695C372.883 211.695 370.153 217.166 368.389 219.318C366.805 221.251 363.951 218.923 365.422 216.228C366.893 213.533 367.835 212.132 367.793 211.229C367.747 210.171 367.147 205.401 367.147 205.401C362.427 202.882 359.523 197.901 359.523 197.901C359.523 197.901 315.694 199.686 307.083 199.686C298.472 199.686 295.583 194.708 294.948 190.581C294.704 189 294.757 184.037 294.919 178.491C295.099 172.346 295.413 165.477 295.625 161.699C295.717 159.981 295.784 158.901 295.805 158.82L300.56 159.311L319.039 161.223L318.848 172.579L318.742 178.974C318.742 178.974 369.098 183.37 371.356 184.552C372.799 185.307 382.645 196.038 385.068 200.956C385.58 202.014 386.222 214.598 386.285 216.506C386.349 218.415 386.793 222.412 384.592 222.221Z" fill="#F9CBA2"/>
<path d="M319.029 161.221L318.838 172.577C306.971 172.224 299.39 175.431 294.92 178.489C295.1 172.344 295.414 165.475 295.625 161.697L300.564 159.309L319.029 161.221Z" fill="#E5AD83"/>
<path d="M320.588 140.264C320.464 145.08 320.235 150.826 319.977 155.984C319.833 159.036 319.684 161.879 319.561 164.2C319.37 167.749 319.233 170.085 319.233 170.085C319.233 170.085 294.186 167.04 289.6 171.7C289.6 171.7 290.101 168.91 290.866 164.761C291.423 161.727 292.122 157.96 292.866 154.03C293.685 149.719 294.56 145.21 295.368 141.22C296.567 135.297 297.622 130.549 298.123 129.399C299.788 125.571 304.734 119.253 310.939 119.539C317.144 119.824 319.97 123.977 320.549 130.828C320.711 132.595 320.697 136.077 320.588 140.264Z" fill="url(#paint18_linear_1_2020)"/>
<path d="M385.947 141.895L383.347 155.008C383.347 155.008 374.577 154.567 367.55 159.654C360.523 164.741 355.157 166.128 342.207 165.57C330.837 165.083 325.601 161.337 319.982 155.985C319.202 155.244 318.415 154.472 317.604 153.675C314.655 150.778 304.837 149.621 292.885 154.027C293.703 149.716 294.578 145.208 295.386 141.218C303.585 137.941 311.261 137.143 320.592 140.262C323.445 141.235 326.219 142.43 328.886 143.836C344.055 151.695 353.301 152.249 365.049 146.792C376.796 141.334 383.541 141.525 385.947 141.895Z" fill="url(#paint19_linear_1_2020)"/>
<path d="M392.695 124.177C392.695 124.177 392.543 170.13 392.236 184.418C391.93 198.705 389.04 202.9 381.921 204.198C374.802 205.496 369.5 197.086 369.5 197.086C369.5 197.086 377.907 143.651 379.452 129.868C379.604 128.836 379.68 127.795 379.681 126.753C379.638 126.336 379.502 125.935 379.283 125.578C378.429 124.283 376.584 124.675 375.402 118.85C373.991 111.756 379.805 89.8309 379.805 89.8309C381.78 88.5257 384.151 88.5821 384.62 90.6388C384.62 90.6388 385.886 89.3829 386.55 90.6388C387.213 91.8947 388.151 94.2371 388.151 94.2371C388.151 94.2371 389.418 93.0306 390.416 95.4295C391.415 97.8284 398.177 113.277 398.724 115.132C399.176 116.638 398.026 119.411 392.695 124.177Z" fill="#F9CBA2"/>
<path d="M385.054 201.305C384.988 201.305 384.923 201.287 384.867 201.252C384.811 201.217 384.766 201.167 384.737 201.107C382.338 196.214 372.548 185.585 371.179 184.858C371.099 184.814 371.039 184.739 371.013 184.651C370.986 184.563 370.996 184.468 371.039 184.386C371.081 184.304 371.154 184.243 371.242 184.214C371.33 184.186 371.425 184.193 371.508 184.234C373.042 185.038 382.906 195.766 385.372 200.797C385.398 200.851 385.41 200.91 385.407 200.97C385.404 201.03 385.386 201.088 385.354 201.139C385.322 201.19 385.278 201.232 385.226 201.261C385.173 201.29 385.114 201.305 385.054 201.305Z" fill="#C98348"/>
<path d="M377.258 224.337C376.948 224.34 376.642 224.268 376.366 224.126C375.768 223.762 375.337 223.178 375.166 222.499C374.854 222.674 374.507 222.776 374.15 222.8C373.793 222.824 373.435 222.768 373.103 222.637C372.756 222.501 372.452 222.274 372.223 221.979C371.993 221.685 371.848 221.335 371.801 220.965C371.684 220.037 372.154 218.968 372.545 218.107C372.72 217.773 372.852 217.417 372.937 217.049C372.937 216.64 372.775 214.604 372.637 212.967C371.741 214.689 369.963 217.973 368.665 219.557C368.346 219.992 367.87 220.284 367.338 220.371C366.806 220.458 366.262 220.333 365.821 220.023C364.781 219.317 364.206 217.741 365.116 216.075C365.433 215.497 365.723 214.978 365.987 214.513C366.88 212.922 367.472 211.87 367.444 211.264C367.44 211.17 367.473 211.079 367.536 211.009C367.599 210.94 367.687 210.899 367.781 210.895C367.875 210.891 367.966 210.924 368.035 210.987C368.104 211.05 368.145 211.138 368.15 211.232C368.185 212.04 367.624 213.042 366.601 214.858C366.34 215.324 366.051 215.839 365.737 216.414C365.031 217.709 365.444 218.915 366.216 219.437C366.362 219.543 366.528 219.618 366.703 219.659C366.879 219.7 367.06 219.705 367.238 219.674C367.415 219.644 367.585 219.578 367.737 219.481C367.888 219.384 368.019 219.258 368.121 219.109C369.839 217.014 372.542 211.606 372.57 211.553C372.604 211.484 372.66 211.429 372.729 211.395C372.798 211.361 372.876 211.35 372.951 211.364C373.027 211.379 373.095 211.417 373.147 211.474C373.198 211.531 373.23 211.603 373.237 211.68C373.237 211.87 373.646 216.368 373.646 217.049C373.577 217.522 373.424 217.978 373.194 218.397C372.842 219.176 372.415 220.161 372.489 220.866C372.521 221.112 372.618 221.344 372.771 221.539C372.924 221.734 373.126 221.884 373.357 221.974C373.659 222.087 373.987 222.117 374.306 222.058C374.624 222 374.92 221.856 375.163 221.642C375.212 221.604 375.27 221.579 375.332 221.57C375.394 221.562 375.457 221.569 375.515 221.593C375.572 221.617 375.623 221.655 375.661 221.705C375.699 221.754 375.723 221.813 375.731 221.875C375.731 221.875 375.904 223.092 376.68 223.491C377.128 223.72 377.72 223.646 378.444 223.269C379.297 222.821 380.871 219.035 381.664 216.774C381.68 216.73 381.704 216.69 381.734 216.655C381.765 216.621 381.803 216.592 381.844 216.572C381.886 216.552 381.932 216.54 381.978 216.538C382.024 216.535 382.071 216.542 382.114 216.557C382.158 216.572 382.198 216.596 382.233 216.627C382.268 216.658 382.296 216.695 382.316 216.737C382.336 216.779 382.348 216.824 382.35 216.87C382.353 216.917 382.347 216.963 382.331 217.007C382.113 217.635 380.148 223.17 378.772 223.893C378.31 224.16 377.791 224.312 377.258 224.337Z" fill="#C98348"/>
<path d="M387.062 107.789C386.981 107.791 386.903 107.767 386.839 107.719C386.775 107.67 386.729 107.602 386.709 107.524C383.414 94.6198 383.354 91.4765 384.363 90.4006C384.427 90.3323 384.515 90.2922 384.609 90.2892C384.703 90.2863 384.794 90.3206 384.862 90.3847C384.93 90.4488 384.97 90.5374 384.973 90.631C384.976 90.7246 384.942 90.8156 384.878 90.8839C383.932 91.8858 384.663 96.6553 387.393 107.348C387.405 107.393 387.407 107.44 387.401 107.486C387.395 107.532 387.379 107.576 387.355 107.616C387.332 107.656 387.301 107.691 387.263 107.719C387.226 107.747 387.184 107.767 387.139 107.778C387.114 107.785 387.088 107.788 387.062 107.789Z" fill="#C98348"/>
<path d="M390.695 109.88C390.623 109.88 390.551 109.857 390.492 109.815C390.433 109.772 390.388 109.713 390.364 109.644C390.24 109.291 387.341 100.976 386.907 99.4943C386.427 97.8539 386.723 95.1904 387.912 93.991C387.945 93.9581 387.984 93.932 388.026 93.9141C388.069 93.8962 388.115 93.8869 388.161 93.8867C388.208 93.8866 388.254 93.8955 388.296 93.9131C388.339 93.9307 388.378 93.9566 388.411 93.9892C388.444 94.0219 388.47 94.0607 388.488 94.1035C388.506 94.1462 388.515 94.1921 388.515 94.2384C388.516 94.2848 388.507 94.3307 388.489 94.3736C388.472 94.4165 388.446 94.4555 388.413 94.4884C387.443 95.4691 387.168 97.8786 387.584 99.2968C388 100.715 390.999 109.326 391.027 109.414C391.046 109.467 391.051 109.524 391.043 109.58C391.036 109.636 391.015 109.689 390.982 109.734C390.95 109.78 390.907 109.818 390.857 109.844C390.807 109.87 390.752 109.883 390.695 109.884V109.88Z" fill="#C98348"/>
<path d="M389.079 110.003C389.018 110.003 388.958 109.987 388.904 109.957C388.851 109.926 388.807 109.883 388.776 109.83C388.07 108.631 384.659 108.133 381.593 108.168C381.499 108.168 381.41 108.131 381.344 108.065C381.277 107.999 381.24 107.909 381.24 107.816C381.24 107.722 381.277 107.632 381.344 107.566C381.41 107.5 381.499 107.463 381.593 107.463C382.69 107.463 388.215 107.481 389.393 109.47C389.425 109.524 389.442 109.585 389.442 109.647C389.443 109.709 389.427 109.771 389.396 109.825C389.365 109.879 389.321 109.924 389.267 109.955C389.213 109.986 389.152 110.003 389.09 110.003H389.079Z" fill="#C98348"/>
<path d="M383.266 118.893C383.172 118.893 383.083 118.856 383.016 118.789C382.95 118.723 382.913 118.634 382.913 118.54C382.962 117.235 384.381 116 386.529 114.13C387.467 113.315 388.533 112.388 389.672 111.308C389.74 111.243 389.83 111.207 389.924 111.209C390.017 111.211 390.106 111.249 390.171 111.317C390.236 111.384 390.272 111.475 390.27 111.568C390.269 111.662 390.23 111.751 390.163 111.816C389.009 112.924 387.94 113.855 386.988 114.677C385.051 116.363 383.65 117.58 383.612 118.582C383.601 118.667 383.561 118.745 383.497 118.802C383.433 118.86 383.351 118.892 383.266 118.893Z" fill="#C98348"/>
<path d="M346.682 80.7343L351.717 70.0734C351.717 70.0734 341.983 68.5635 327.149 77.7146C320.196 82.0043 314.238 87.3031 309.863 92.9157C306.05 96.8845 302.247 101.675 300.451 106.417C298.754 110.893 297.523 115.501 299.999 118.834C302.536 122.253 308.717 123.907 319.198 123.907C320.825 123.907 322.557 123.867 324.394 123.787C326.617 125.343 328.331 127.315 329.135 129.449C327.068 131.22 324.857 132.815 322.524 134.219C324.951 133.444 327.311 132.472 329.58 131.312C329.851 133.64 329.008 136.089 326.599 138.392C328.283 137.573 329.72 136.322 330.765 134.768C331.81 133.213 332.424 131.41 332.547 129.541C344.509 121.339 336.519 111.034 334.452 108.452C331.965 105.344 330.042 98.9906 332.286 94.8842C339.602 81.5316 346.682 80.7343 346.682 80.7343ZM300.571 118.411C298.296 115.349 299.488 110.957 301.114 106.663C302.275 103.601 304.289 100.511 306.614 97.643C303.672 102.547 302.01 107.538 302.007 112.184C302.007 120.979 310.008 118.887 317.998 120.891C319.893 121.365 321.707 122.116 323.382 123.121C310.593 123.586 303.291 122.066 300.574 118.407L300.571 118.411ZM333.379 120.711C334.332 122.341 333.693 124.239 332.349 126.073C331.922 123.734 330.903 121.007 329.019 117.839C330.857 118.28 332.458 119.148 333.372 120.708L333.379 120.711Z" fill="url(#paint20_linear_1_2020)"/>
<path d="M349.036 98.474C349.036 98.474 362.498 85.1778 365.264 68.0081C365.264 68.0081 371.335 77.5331 381.22 80.2354V89.0548C381.22 89.0548 388.071 83.2657 384.861 76.7641C384.861 76.7641 388.205 80.059 387.051 85.6964C387.051 85.6964 392.318 83.4421 390.844 75.2894C389.369 67.1368 373.861 59.7672 362.561 61.5311C343.681 64.4415 337.454 78.1646 343.586 99.5746L349.036 98.474Z" fill="url(#paint21_linear_1_2020)"/>
<path d="M349.039 98.4751L343.596 99.5722C343.493 99.2194 343.391 98.8666 343.296 98.5139C344.598 97.385 346.75 97.4732 349.039 98.4751Z" fill="url(#paint22_linear_1_2020)"/>
<path d="M379.568 118.95C375.109 123.853 367.479 120.661 367.479 120.661L363.524 126.351L357.749 134.655L356.006 137.164C355.336 138.194 348.083 139.848 343.331 135.752C341.487 134.229 340.118 132.21 339.385 129.933C338.652 127.656 338.585 125.217 339.193 122.904L341.38 119.26L347.698 108.733C344.065 108.733 341.511 103.54 342.163 100.506C342.302 99.7244 342.701 99.0122 343.296 98.4851C344.597 97.3738 346.749 97.462 349.039 98.4639C349.039 98.4639 362.501 85.1677 365.267 67.998C365.267 67.998 371.338 77.523 381.223 80.2253V89.0447C381.84 88.4964 382.409 87.8956 382.923 87.2491C383.301 94.6574 383.728 103.258 383.83 106.073C384.027 111.372 384.027 114.046 379.568 118.95Z" fill="#F9CBA2"/>
<path d="M373.861 121.99C373.768 121.994 373.677 121.961 373.608 121.897C373.539 121.834 373.498 121.745 373.494 121.652C373.491 121.558 373.524 121.467 373.588 121.398C373.651 121.329 373.74 121.289 373.833 121.285C375.923 121.17 377.887 120.246 379.308 118.71C383.764 113.809 383.672 111.234 383.485 106.098C383.379 103.191 382.935 94.2586 382.578 87.2771C382.574 87.1836 382.606 87.092 382.669 87.0225C382.732 86.953 382.82 86.9114 382.914 86.9067C383.007 86.902 383.099 86.9347 383.168 86.9975C383.238 87.0604 383.279 87.1483 383.284 87.2418C383.637 94.2268 384.085 103.159 384.191 106.073C384.392 111.622 384.289 114.279 379.83 119.186C378.29 120.856 376.161 121.862 373.893 121.99H373.861Z" fill="#C98348"/>
<path d="M360.226 83.3121C360.108 83.312 359.994 83.2725 359.901 83.2001C359.808 83.1276 359.742 83.0263 359.713 82.9122C359.685 82.798 359.695 82.6776 359.742 82.5698C359.79 82.4621 359.872 82.3732 359.975 82.3173C361.316 81.5606 362.794 81.0774 364.323 80.8958C365.852 80.7141 367.402 80.8376 368.883 81.259C369.012 81.3014 369.119 81.3917 369.183 81.5112C369.247 81.6307 369.263 81.7703 369.228 81.9011C369.192 82.0319 369.107 82.144 368.991 82.2143C368.875 82.2845 368.737 82.3075 368.604 82.2785C367.254 81.8973 365.842 81.787 364.45 81.9541C363.057 82.1212 361.711 82.5624 360.49 83.2522C360.409 83.295 360.317 83.3157 360.226 83.3121Z" fill="#6B6865"/>
<path d="M381.23 82.7264C381.169 82.7264 381.108 82.7156 381.05 82.6947C379.801 82.2467 377.956 81.7387 376.267 81.8692C376.126 81.88 375.987 81.8345 375.881 81.7429C375.774 81.6513 375.708 81.521 375.697 81.3806C375.686 81.2403 375.732 81.1014 375.823 80.9945C375.915 80.8877 376.045 80.8216 376.185 80.8109C378.059 80.6662 380.066 81.2095 381.407 81.6928C381.524 81.7353 381.622 81.8175 381.684 81.9252C381.746 82.0329 381.769 82.1591 381.747 82.2816C381.726 82.4041 381.662 82.5152 381.567 82.5952C381.471 82.6753 381.351 82.7193 381.227 82.7194L381.23 82.7264Z" fill="#6B6865"/>
<path d="M190.991 156.694C190.991 156.694 184.832 191.732 184.416 191.835C184.296 191.866 180.867 191.535 175.822 191.006C163.277 189.69 140.749 187.125 134.339 185.876C125.347 184.112 119.476 174.848 122.108 164.865C124.606 155.379 133.337 134.219 141.342 115.684C149.103 97.6501 156.204 82.082 156.204 82.082L168.668 101.312L161.012 126.133L151.057 158.412C161.034 158.384 166.932 158.141 172.195 157.82C177.819 157.46 182.687 157.03 190.991 156.694Z" fill="#F9CBA2"/>
<path d="M190.991 156.693C190.991 156.693 184.832 191.731 184.415 191.833C184.295 191.865 180.866 191.534 175.822 191.004C173.768 184.199 170.082 169.563 172.192 157.805C177.818 157.459 182.687 157.028 190.991 156.693Z" fill="#E5AD83"/>
<path d="M168.664 101.296L161.009 126.118C149.794 129.293 143.546 123.172 141.338 115.668C149.099 97.6345 156.2 82.0664 156.2 82.0664L168.664 101.296Z" fill="url(#paint23_linear_1_2020)"/>
<path d="M151.054 158.75C150.997 158.753 150.941 158.741 150.89 158.718C150.839 158.694 150.794 158.658 150.76 158.614C150.725 158.569 150.702 158.517 150.691 158.462C150.681 158.406 150.684 158.349 150.701 158.295L151.614 155.328C151.644 155.241 151.707 155.17 151.788 155.128C151.87 155.087 151.965 155.079 152.052 155.106C152.14 155.133 152.214 155.193 152.258 155.273C152.302 155.354 152.313 155.448 152.288 155.536L151.516 158.045C164.279 158.002 170.181 157.6 177.004 157.131C180.976 156.859 185.082 156.577 190.963 156.341C191.01 156.339 191.056 156.346 191.099 156.362C191.143 156.378 191.183 156.403 191.217 156.434C191.251 156.465 191.278 156.503 191.298 156.545C191.317 156.587 191.328 156.633 191.33 156.679C191.332 156.726 191.325 156.772 191.309 156.815C191.293 156.859 191.268 156.899 191.237 156.933C191.205 156.967 191.168 156.994 191.125 157.014C191.083 157.033 191.038 157.044 190.991 157.046C185.121 157.283 181.022 157.561 177.053 157.833C170.135 158.306 164.159 158.715 151.039 158.75H151.054Z" fill="#C98348"/>
<path d="M123.509 160.57C123.453 160.57 123.398 160.557 123.349 160.532C123.299 160.506 123.256 160.47 123.223 160.424C123.191 160.379 123.169 160.327 123.161 160.272C123.152 160.217 123.156 160.161 123.174 160.108C125.036 154.464 128.151 146.297 132.427 135.883C132.463 135.796 132.531 135.727 132.617 135.691C132.704 135.655 132.801 135.655 132.887 135.691C132.974 135.726 133.043 135.795 133.079 135.881C133.115 135.967 133.115 136.064 133.08 136.151C128.811 146.551 125.703 154.686 123.844 160.33C123.82 160.4 123.775 160.461 123.715 160.504C123.655 160.547 123.583 160.57 123.509 160.57Z" fill="#C98348"/>
<path d="M120.673 112.403C116.711 119.614 108.858 121.865 100.522 119.201L86.2451 92.6056L108.216 90.5312C108.216 90.5312 113.853 100.42 120.673 112.403Z" fill="url(#paint24_linear_1_2020)"/>
<path d="M199.6 156.122C199.6 156.122 202.796 148.298 209.989 147.112C215.912 146.139 220.219 145.977 220.784 146.139C221.348 146.301 221.595 147.68 221.595 147.68L212.666 158.475L199.6 156.122Z" fill="url(#paint25_linear_1_2020)"/>
<path d="M207.272 158.476C204.898 154.863 204.136 153.851 203.431 153.784C202.725 153.717 192.142 153.706 190.353 154.718C188.565 155.731 179.999 159.305 178.909 176.206C177.819 193.108 180.673 195.609 183.968 195.979C188.095 196.445 191.376 196.29 192.533 195.979C193.69 195.669 195.804 193.256 195.804 193.256L206.923 158.476" fill="url(#paint26_linear_1_2020)"/>
<path d="M276.476 155.617C276.261 155.572 270.186 155.928 262.877 159.939C259.098 162.017 255.67 164.678 252.72 167.824C241.883 179.317 246.892 194.793 248.586 197.88C248.586 197.88 245.291 197.725 241.177 197.527C236.5 197.295 230.767 196.998 227.606 196.797C221.669 196.416 189.859 194.345 189.859 194.345C189.859 194.345 185.721 189.96 187.463 174.992C189.206 160.024 197.8 156.08 198.453 155.861C199.105 155.642 210.613 154.898 210.613 154.898C210.613 154.898 210.648 154.82 210.669 154.781C213.336 149.165 218.384 147.486 222.498 146.943C224.516 146.678 227.289 145.98 231.173 145.44C236.602 144.701 242.094 144.529 247.559 144.928C248.011 144.957 248.476 145.009 248.953 145.076C255.398 146.018 264.069 150.425 270.296 153.25C272.889 154.45 275.069 155.356 276.476 155.617Z" fill="url(#paint27_linear_1_2020)"/>
<path d="M262.877 159.939C259.098 162.017 255.67 164.678 252.72 167.823C241.883 179.317 246.892 194.793 248.586 197.88C248.586 197.88 245.291 197.725 241.177 197.527C236.5 197.294 230.767 196.998 227.606 196.797C221.669 196.416 189.859 194.345 189.859 194.345C189.859 194.345 185.721 189.96 187.463 174.992C189.206 160.023 197.8 156.079 198.453 155.861C199.105 155.642 210.613 154.898 210.613 154.898C210.613 154.898 210.648 154.82 210.669 154.781C211.044 154.896 211.444 154.896 211.819 154.781C213.76 154.136 242.042 142 262.877 159.939Z" fill="url(#paint28_linear_1_2020)"/>
<path d="M229.148 190.094C217.605 190.094 205.022 189.657 201.085 188.951C196.94 188.21 192.618 188.009 187.506 188.323C187.413 188.329 187.321 188.297 187.251 188.235C187.181 188.173 187.138 188.085 187.132 187.991C187.127 187.898 187.159 187.806 187.221 187.736C187.283 187.666 187.371 187.623 187.464 187.618C192.643 187.3 197.01 187.501 201.222 188.253C206.687 189.233 231.858 189.819 244.699 189.022C244.745 189.019 244.791 189.025 244.835 189.04C244.879 189.056 244.92 189.079 244.954 189.11C244.989 189.141 245.017 189.178 245.038 189.22C245.058 189.262 245.07 189.307 245.073 189.353C245.075 189.4 245.069 189.446 245.054 189.49C245.039 189.534 245.015 189.574 244.984 189.609C244.953 189.644 244.916 189.672 244.874 189.692C244.833 189.712 244.787 189.724 244.741 189.727C240.673 189.978 235.047 190.094 229.148 190.094Z" fill="#B68B2D"/>
<path d="M276.477 155.618C275.195 155.674 273.923 155.862 272.681 156.179C271.841 156.366 270.889 156.62 269.859 156.948C263.92 158.851 258.508 162.112 254.051 166.473C253.611 166.901 253.172 167.346 252.735 167.807C252.57 167.983 252.408 168.159 252.248 168.336C242.046 179.769 246.932 194.822 248.597 197.881C248.597 197.881 245.302 197.726 241.188 197.528C238.539 190.871 237.421 182.44 241.114 173.635C242.152 171.185 243.533 168.896 245.217 166.837C245.767 166.159 246.348 165.505 246.96 164.875C251.168 160.504 256.707 157.241 262.722 155.188C263.869 154.793 265.03 154.44 266.204 154.13C267.551 153.781 268.91 153.492 270.278 153.262C272.889 154.451 275.069 155.357 276.477 155.618Z" fill="url(#paint29_linear_1_2020)"/>
<path d="M248.939 145.087C246.61 146.473 245.235 149.207 245.235 149.207C242.165 148.205 233.138 147.732 229.007 148.502C229.336 147.261 230.1 146.179 231.159 145.454C236.588 144.714 242.08 144.543 247.545 144.942C247.997 144.963 248.463 145.02 248.939 145.087Z" fill="url(#paint30_linear_1_2020)"/>
<path d="M242.451 150.608C234.27 152.04 229.528 162.814 229.528 162.814L213.354 162.532C213.643 157.536 217.94 153.871 220.578 152.068C226.558 150.573 234.506 149.373 242.451 150.608Z" fill="url(#paint31_linear_1_2020)"/>
<path d="M272.677 156.178C271.838 156.365 270.885 156.619 269.855 156.947C267.551 156.104 265.163 155.512 262.732 155.183C262.105 155.089 261.44 155.001 260.739 154.918L263.77 153.684C264.574 153.789 265.396 153.948 266.214 154.139C268.414 154.665 270.574 155.346 272.677 156.178Z" fill="url(#paint32_linear_1_2020)"/>
<path d="M254.036 166.484C253.597 166.912 253.158 167.356 252.721 167.817C252.556 167.993 252.394 168.17 252.234 168.346C250.487 167.884 247.789 167.228 245.217 166.815C244.165 166.643 243.106 166.525 242.042 166.462L243.132 164.346C244.487 164.473 245.774 164.646 246.974 164.843C249.361 165.237 251.72 165.785 254.036 166.484Z" fill="url(#paint33_linear_1_2020)"/>
<path d="M359.006 177.182C358.95 177.185 358.894 177.173 358.843 177.15C358.792 177.126 358.748 177.091 358.713 177.047C358.679 177.003 358.656 176.951 358.645 176.896C358.634 176.841 358.637 176.785 358.653 176.731C359.104 175.2 359.902 172.903 361.027 169.901C363.712 162.743 367.522 153.567 368.185 152.506C369.095 151.059 370.026 150.671 370.065 150.657C370.15 150.628 370.243 150.633 370.325 150.671C370.406 150.708 370.471 150.776 370.504 150.859C370.538 150.942 370.539 151.035 370.506 151.119C370.474 151.203 370.411 151.271 370.33 151.31C370.309 151.31 369.55 151.662 368.785 152.88C368.213 153.8 364.488 162.683 361.69 170.148C360.572 173.132 359.778 175.415 359.33 176.928C359.31 176.999 359.267 177.062 359.209 177.108C359.151 177.153 359.08 177.179 359.006 177.182Z" fill="#609640"/>
<path d="M319.561 164.2C319.37 167.749 319.233 170.085 319.233 170.085C319.233 170.085 294.186 167.04 289.6 171.7C289.6 171.7 290.101 168.91 290.866 164.761C298.659 162.877 310.156 162.503 319.561 164.2Z" fill="url(#paint34_linear_1_2020)"/>
<path d="M372.277 213.211C372.217 213.211 372.157 213.196 372.104 213.166C372.051 213.137 372.007 213.094 371.975 213.042C371.944 212.99 371.926 212.931 371.924 212.871C371.922 212.81 371.935 212.75 371.963 212.696L372.037 212.555C372.933 210.837 373.071 210.572 373.096 209.532C373.138 208.406 373.096 205.115 373.096 205.083C373.096 204.99 373.133 204.9 373.199 204.834C373.265 204.768 373.355 204.73 373.449 204.73C373.542 204.73 373.632 204.768 373.698 204.834C373.764 204.9 373.801 204.99 373.801 205.083C373.801 205.221 373.844 208.424 373.801 209.567C373.755 210.766 373.565 211.133 372.648 212.89L372.574 213.031C372.544 213.084 372.501 213.129 372.449 213.16C372.397 213.192 372.338 213.209 372.277 213.211Z" fill="#C98348"/>
<path d="M375.392 222.267C375.329 222.268 375.267 222.251 375.213 222.22C375.159 222.188 375.114 222.143 375.083 222.088C375.052 222.034 375.036 221.972 375.037 221.909C375.038 221.846 375.056 221.785 375.089 221.731C375.406 221.202 375.692 220.733 375.949 220.32C377.36 218.006 377.837 217.226 377.794 216.185C377.741 214.845 377.537 204.318 377.533 204.212C377.533 204.119 377.57 204.029 377.637 203.963C377.703 203.897 377.793 203.859 377.886 203.859C377.98 203.859 378.069 203.897 378.135 203.963C378.202 204.029 378.239 204.119 378.239 204.212C378.239 204.318 378.447 214.838 378.5 216.171C378.549 217.424 378.006 218.316 376.553 220.701C376.295 221.121 376.009 221.59 375.692 222.112C375.659 222.161 375.614 222.201 375.562 222.228C375.509 222.255 375.451 222.269 375.392 222.267Z" fill="#C98348"/>
<path d="M382.01 217.236C381.952 217.236 381.895 217.222 381.844 217.195C381.793 217.168 381.75 217.129 381.717 217.082C381.685 217.034 381.665 216.979 381.659 216.922C381.652 216.865 381.66 216.807 381.682 216.753C381.996 215.977 381.636 207.934 381.329 203.023C381.323 202.929 381.355 202.837 381.417 202.767C381.479 202.697 381.567 202.655 381.66 202.649C381.754 202.643 381.846 202.675 381.916 202.737C381.986 202.8 382.029 202.887 382.034 202.981C382.115 204.293 382.807 215.839 382.331 217.018C382.304 217.082 382.26 217.136 382.203 217.175C382.146 217.214 382.079 217.235 382.01 217.236Z" fill="#C98348"/>
<path d="M498 125.142L486.753 100.691C486.706 100.588 486.626 100.503 486.526 100.448C486.427 100.393 486.312 100.372 486.199 100.388C486.132 100.388 479.377 101.351 470.875 105.284C463.029 108.911 452.036 115.892 444.201 128.543C443.757 129.249 443.76 130.261 444.201 131.436C444.554 132.406 445.588 134.142 446.445 134.142H446.53C446.879 134.042 447.214 133.896 447.524 133.708C455.539 129.735 464.726 127.213 474.829 126.218C492.422 124.479 497.277 125.865 497.347 125.865C497.445 125.896 497.549 125.898 497.648 125.87C497.747 125.842 497.835 125.787 497.903 125.71C497.97 125.633 498.014 125.538 498.029 125.437C498.044 125.335 498.029 125.232 497.986 125.139L498 125.142Z" fill="url(#paint35_linear_1_2020)"/>
<path d="M498 125.141L496.367 121.589C496.329 121.507 496.271 121.436 496.198 121.383C496.125 121.33 496.04 121.297 495.951 121.286C473.595 118.573 452.517 127.015 444.487 130.768C444.366 130.825 444.271 130.925 444.221 131.048C444.17 131.172 444.169 131.31 444.216 131.435C444.569 132.405 445.602 134.141 446.459 134.141H446.544C446.894 134.041 447.228 133.895 447.539 133.707C455.554 129.735 464.74 127.212 474.844 126.217C492.437 124.478 497.291 125.865 497.362 125.865C497.459 125.895 497.564 125.897 497.663 125.869C497.761 125.842 497.85 125.786 497.917 125.709C497.985 125.632 498.029 125.537 498.043 125.436C498.058 125.334 498.043 125.231 498 125.138V125.141Z" fill="url(#paint36_linear_1_2020)"/>
<path d="M436.947 241.502C436.826 241.499 436.708 241.461 436.608 241.392C436.508 241.323 436.431 241.227 436.385 241.115C436.339 241.002 436.326 240.879 436.349 240.76C436.372 240.641 436.429 240.531 436.513 240.444L473.594 204.753C473.713 204.638 473.873 204.575 474.039 204.578C474.205 204.581 474.362 204.65 474.478 204.769C474.593 204.888 474.656 205.049 474.653 205.214C474.65 205.38 474.581 205.538 474.462 205.653L437.381 241.326C437.265 241.439 437.109 241.502 436.947 241.502Z" fill="#654B1E"/>
<path d="M468.595 205.783C467.591 205.78 466.608 206.076 465.771 206.632C464.935 207.188 464.282 207.98 463.895 208.907C463.509 209.835 463.406 210.856 463.601 211.841C463.795 212.827 464.277 213.733 464.987 214.444C465.696 215.156 466.601 215.641 467.586 215.838C468.571 216.035 469.592 215.935 470.521 215.551C471.449 215.167 472.243 214.517 472.801 213.681C473.36 212.846 473.658 211.864 473.658 210.86C473.657 209.516 473.124 208.228 472.175 207.276C471.226 206.325 469.939 205.788 468.595 205.783Z" fill="url(#paint37_linear_1_2020)"/>
<path d="M460.348 213.5C459.344 213.5 458.362 213.798 457.528 214.356C456.693 214.913 456.042 215.706 455.658 216.634C455.274 217.561 455.173 218.582 455.369 219.567C455.565 220.552 456.048 221.456 456.758 222.166C457.468 222.876 458.373 223.36 459.358 223.555C460.342 223.751 461.363 223.651 462.291 223.266C463.218 222.882 464.011 222.232 464.569 221.397C465.127 220.562 465.424 219.58 465.424 218.576C465.423 217.23 464.888 215.94 463.937 214.988C462.985 214.036 461.694 213.501 460.348 213.5Z" fill="url(#paint38_linear_1_2020)"/>
<path d="M452.181 220.75C451.044 220.75 449.932 221.087 448.986 221.719C448.041 222.351 447.304 223.249 446.868 224.3C446.433 225.35 446.319 226.507 446.541 227.622C446.763 228.738 447.311 229.762 448.115 230.566C448.919 231.37 449.944 231.918 451.059 232.14C452.175 232.362 453.331 232.248 454.381 231.813C455.432 231.378 456.33 230.641 456.962 229.695C457.594 228.749 457.931 227.638 457.931 226.5C457.929 224.976 457.323 223.514 456.245 222.436C455.167 221.358 453.705 220.752 452.181 220.75Z" fill="url(#paint39_linear_1_2020)"/>
<path d="M420.883 231.421C420.748 231.424 420.615 231.382 420.506 231.302C420.396 231.223 420.315 231.11 420.276 230.981C420.236 230.851 420.239 230.712 420.285 230.585C420.331 230.458 420.417 230.349 420.53 230.275L459.099 205.178C459.24 205.088 459.41 205.057 459.573 205.092C459.736 205.128 459.879 205.227 459.969 205.367C460.059 205.507 460.09 205.678 460.055 205.841C460.019 206.004 459.92 206.146 459.78 206.237L421.225 231.322C421.123 231.388 421.004 231.422 420.883 231.421Z" fill="#654B1E"/>
<path d="M454.609 205.254C453.714 205.083 452.79 205.18 451.951 205.535C451.112 205.889 450.398 206.484 449.897 207.244C449.396 208.005 449.133 208.897 449.139 209.807C449.145 210.718 449.421 211.606 449.932 212.359C450.443 213.113 451.166 213.698 452.009 214.041C452.853 214.383 453.779 214.468 454.67 214.285C455.562 214.101 456.379 213.658 457.019 213.01C457.659 212.362 458.092 211.539 458.263 210.645C458.492 209.445 458.236 208.204 457.55 207.194C456.865 206.183 455.807 205.486 454.609 205.254Z" fill="url(#paint40_linear_1_2020)"/>
<path d="M446.053 210.641C445.459 210.527 444.849 210.531 444.256 210.653C443.664 210.775 443.101 211.013 442.601 211.352C442.1 211.691 441.672 212.126 441.339 212.631C441.006 213.136 440.777 213.702 440.663 214.296C440.549 214.89 440.553 215.5 440.675 216.093C440.797 216.685 441.034 217.247 441.374 217.748C441.713 218.249 442.148 218.677 442.653 219.01C443.158 219.343 443.723 219.572 444.317 219.686C444.607 219.742 444.901 219.771 445.196 219.771C446.342 219.77 447.446 219.342 448.293 218.57C449.14 217.799 449.669 216.739 449.776 215.598C449.883 214.457 449.561 213.317 448.873 212.401C448.184 211.485 447.179 210.859 446.053 210.645V210.641Z" fill="url(#paint41_linear_1_2020)"/>
<path d="M437.674 215.628C436.491 215.402 435.266 215.592 434.207 216.168C433.149 216.743 432.323 217.668 431.87 218.784C431.417 219.901 431.366 221.139 431.724 222.29C432.081 223.44 432.827 224.43 433.834 225.092C434.84 225.754 436.045 226.047 437.243 225.92C438.441 225.794 439.558 225.256 440.403 224.398C441.249 223.54 441.771 222.415 441.881 221.216C441.99 220.016 441.68 218.816 441.004 217.819C440.622 217.251 440.13 216.766 439.559 216.39C438.987 216.014 438.346 215.755 437.674 215.628Z" fill="url(#paint42_linear_1_2020)"/>
<path d="M496.211 125.017C496.102 125.016 495.997 124.982 495.908 124.919C495.82 124.855 495.753 124.767 495.717 124.664C490.238 110.243 487.321 107.216 483.285 103.025L482.304 102.005C482.233 101.93 482.185 101.836 482.167 101.734C481.969 100.804 482.09 99.8357 482.51 98.9834C482.93 98.1311 483.624 97.4448 484.481 97.0348C485.839 96.3822 487.303 96.5833 488.139 97.5287C499.714 110.723 502.293 122.735 502.317 122.855C502.344 122.987 502.32 123.124 502.249 123.239C502.178 123.354 502.067 123.437 501.936 123.472L496.345 124.989C496.302 125.004 496.257 125.014 496.211 125.017Z" fill="url(#paint43_linear_1_2020)"/>
<path d="M502.47 123.162C502.188 121.878 500.484 121.194 498.589 121.61C497.781 121.771 497.031 122.151 496.423 122.707C496.133 122.928 495.913 123.227 495.787 123.568C495.662 123.91 495.636 124.281 495.714 124.637C495.792 124.992 495.97 125.318 496.227 125.577C496.483 125.835 496.809 126.014 497.164 126.094C497.595 126.241 498.049 126.314 498.505 126.309C498.87 126.308 499.234 126.268 499.591 126.189C501.485 125.776 502.748 124.446 502.47 123.162Z" fill="url(#paint44_linear_1_2020)"/>
<path d="M484.985 107.778C484.661 106.871 483.796 106.244 482.554 106.014C481.271 105.81 479.956 105.945 478.741 106.406C475.88 107.429 474.155 109.637 474.786 111.433C475.217 112.639 476.596 113.306 478.314 113.306C479.239 113.296 480.155 113.128 481.023 112.809C482.256 112.394 483.359 111.664 484.223 110.692C485.041 109.715 485.299 108.681 484.985 107.778Z" fill="url(#paint45_linear_1_2020)"/>
<path d="M476.529 117.123C476.219 116.259 475.401 115.659 474.215 115.433C473.001 115.24 471.756 115.368 470.606 115.804C467.897 116.774 466.253 118.869 466.863 120.577C467.174 121.441 467.992 122.041 469.178 122.267C469.527 122.332 469.881 122.363 470.236 122.362C471.109 122.353 471.974 122.195 472.794 121.896C473.96 121.505 475.003 120.815 475.82 119.896C476.582 118.972 476.833 117.987 476.529 117.123Z" fill="url(#paint46_linear_1_2020)"/>
<path d="M463.035 113.895C461.843 112.607 459.31 113.08 457.275 114.953C455.239 116.827 454.572 119.331 455.765 120.619C456.002 120.862 456.287 121.052 456.603 121.178C456.918 121.303 457.256 121.36 457.596 121.346C457.889 121.344 458.181 121.311 458.467 121.247C459.617 120.957 460.671 120.372 461.526 119.55C463.565 117.67 464.228 115.183 463.035 113.895Z" fill="url(#paint47_linear_1_2020)"/>
<path d="M485.165 113.213C485.006 113.045 484.799 112.929 484.572 112.881C484.345 112.834 484.109 112.857 483.895 112.949C483.591 113.138 483.359 113.424 483.236 113.76C483.042 114.159 482.904 114.445 482.34 114.547L481.987 114.607C481.214 114.734 480.484 114.857 480.16 115.372C480.081 115.5 480.032 115.643 480.016 115.792C479.999 115.941 480.016 116.091 480.064 116.233C480.332 117.136 481.475 117.591 482.534 117.644H482.749C484.04 117.644 485.081 117.034 485.504 116.018C486.192 114.339 485.419 113.453 485.165 113.213Z" fill="url(#paint48_linear_1_2020)"/>
<path d="M470.575 104.134C469.791 103.781 468.754 103.735 468.289 104.261C468.006 104.582 468.13 104.966 468.253 105.344C468.489 106.014 468.602 106.722 468.589 107.432C468.589 108.42 467.883 109.041 467.301 109.549C466.878 109.923 466.542 110.216 466.553 110.65C466.557 110.768 466.587 110.883 466.642 110.988C466.697 111.092 466.775 111.183 466.87 111.253C467.356 111.624 467.953 111.82 468.564 111.807C469.037 111.805 469.505 111.708 469.94 111.521C471.404 110.897 472.335 109.436 472.501 107.517C472.631 105.968 471.894 104.705 470.575 104.134Z" fill="url(#paint49_linear_1_2020)"/>
<path d="M453.511 121.68C453.233 121.604 452.94 121.596 452.658 121.656C452.306 121.74 451.939 121.737 451.589 121.647C451.238 121.557 450.915 121.383 450.647 121.141C450.218 120.746 449.878 120.265 449.648 119.73C449.465 119.349 449.296 118.985 448.894 118.897C448.759 118.874 448.622 118.883 448.492 118.924C448.362 118.964 448.243 119.035 448.146 119.13C447.518 119.652 447.232 120.957 447.493 122.1C447.627 122.709 447.934 123.267 448.378 123.705C448.822 124.143 449.383 124.444 449.994 124.57C450.34 124.658 450.695 124.704 451.052 124.707C451.663 124.737 452.268 124.573 452.78 124.238C453.292 123.904 453.685 123.416 453.903 122.845C454.125 122.167 453.829 121.793 453.511 121.68Z" fill="url(#paint50_linear_1_2020)"/>
<path d="M286.985 58.8048C298.995 58.8048 308.731 49.0692 308.731 37.0596C308.731 25.0501 298.995 15.3145 286.985 15.3145C274.976 15.3145 265.24 25.0501 265.24 37.0596C265.24 49.0692 274.976 58.8048 286.985 58.8048Z" fill="url(#paint51_linear_1_2020)"/>
<path d="M287.039 56.8611C286.686 56.8611 286.333 56.8434 285.956 56.8046C283.737 56.5824 281.917 55.7745 281.084 54.6421C279.525 52.5254 278.082 51.1708 275.69 51.0438C274.598 51.0451 273.514 50.8565 272.487 50.4864C270.571 49.6997 269.39 47.9005 268.769 44.8419C268.744 44.7255 268.723 44.6021 268.698 44.4892C268.485 43.3192 268.576 42.1143 268.963 40.9896C269.347 39.6138 269.746 38.1886 268.779 34.6396C268.176 32.4348 269.524 28.3884 272.307 27.5629C274.681 26.8574 274.727 26.8574 274.614 25.2099C274.441 22.7052 275.672 21.5904 278.495 20.0452C280.809 18.7788 283.889 18.6341 287.455 18.4472C288.648 18.3872 289.882 18.3272 291.142 18.2179C291.953 18.1319 292.772 18.1843 293.565 18.3731H293.608C293.96 18.4965 294.278 18.62 294.588 18.747L294.677 18.7929C295.89 19.4702 296.476 20.5568 296.994 21.4987C297.237 22.0195 297.565 22.4964 297.964 22.9098C298.501 23.3719 299.407 23.6153 300.367 23.8588C300.984 24.0058 301.592 24.1908 302.187 24.4126C303.32 24.8606 304.039 25.471 304.456 26.3282C304.879 27.1464 305.085 28.0602 305.052 28.9811C304.972 29.8747 304.733 30.7469 304.346 31.5564C304.092 32.1026 303.907 32.6786 303.796 33.2709C303.662 34.241 304.025 35.0771 304.449 36.0437C304.897 36.9332 305.18 37.8965 305.285 38.8871C305.397 40.651 304.35 42.0621 303.334 43.4238C302.956 43.9318 302.565 44.4539 302.24 44.9901C301.774 45.7742 301.567 46.6851 301.647 47.5936C301.647 48.2145 301.665 48.8036 301.295 49.3293C301.263 49.3751 298.12 53.8589 295.297 53.2098C293.675 52.857 292.306 54.127 290.987 55.3688C290.789 55.5523 290.595 55.7216 290.401 55.9121C289.731 56.5295 288.51 56.8611 287.039 56.8611Z" fill="url(#paint52_linear_1_2020)"/>
<path d="M291.791 37.0587C291.791 38.01 291.51 38.9402 290.982 39.7314C290.454 40.5227 289.703 41.1396 288.824 41.5039C287.945 41.8683 286.978 41.9638 286.045 41.7784C285.112 41.593 284.255 41.1349 283.582 40.4623C282.909 39.7896 282.451 38.9325 282.266 37.9995C282.081 37.0664 282.176 36.0993 282.541 35.2206C282.905 34.3418 283.522 33.5909 284.313 33.0628C285.104 32.5347 286.034 32.2532 286.986 32.2539C288.259 32.2558 289.481 32.7626 290.381 33.6633C291.282 34.5639 291.789 35.785 291.791 37.0587Z" fill="url(#paint53_linear_1_2020)"/>
<path d="M294.197 35.4376C294.296 35.539 294.414 35.6195 294.544 35.6745C294.674 35.7295 294.814 35.7579 294.956 35.7579C295.097 35.7579 295.237 35.7295 295.367 35.6745C295.498 35.6195 295.616 35.539 295.714 35.4376L298.399 32.753C298.498 32.6534 298.577 32.5351 298.631 32.405C298.685 32.2749 298.713 32.1354 298.713 31.9945C298.713 31.8537 298.685 31.7142 298.631 31.584C298.577 31.4539 298.498 31.3356 298.399 31.236C298.299 31.1364 298.181 31.0574 298.051 31.0035C297.921 30.9496 297.781 30.9219 297.64 30.9219C297.499 30.9219 297.36 30.9496 297.23 31.0035C297.1 31.0574 296.981 31.1364 296.882 31.236L294.197 33.9207C294.096 34.0193 294.015 34.1372 293.96 34.2675C293.905 34.3978 293.877 34.5377 293.877 34.6792C293.877 34.8206 293.905 34.9605 293.96 35.0908C294.015 35.2211 294.096 35.339 294.197 35.4376Z" fill="url(#paint54_linear_1_2020)"/>
<path d="M299.88 27.1045L296.405 25.5734C296.145 25.4588 295.85 25.4522 295.585 25.5551C295.32 25.658 295.107 25.8619 294.992 26.122C294.878 26.3821 294.871 26.6771 294.974 26.942C295.077 27.207 295.281 27.4202 295.541 27.5349L299.016 29.0659C299.276 29.1805 299.571 29.1871 299.836 29.0842C300.101 28.9814 300.314 28.7774 300.429 28.5173C300.543 28.2572 300.55 27.9623 300.447 27.6973C300.344 27.4323 300.14 27.2191 299.88 27.1045Z" fill="url(#paint55_linear_1_2020)"/>
<path d="M281.861 25.2382C281.767 25.4007 281.718 25.5852 281.719 25.7729C281.72 25.9605 281.771 26.1446 281.866 26.3061C281.962 26.4677 282.098 26.6009 282.262 26.6922C282.426 26.7835 282.611 26.8296 282.799 26.8257C282.902 26.8261 283.004 26.8119 283.102 26.7833L286.747 25.725C287.019 25.645 287.249 25.46 287.385 25.2105C287.522 24.9611 287.553 24.6678 287.473 24.395C287.393 24.1223 287.208 23.8925 286.959 23.7562C286.709 23.62 286.416 23.5883 286.143 23.6683L282.499 24.7267C282.364 24.7653 282.238 24.8304 282.129 24.9182C282.019 25.006 281.928 25.1148 281.861 25.2382Z" fill="url(#paint56_linear_1_2020)"/>
<path d="M279.059 26.4298C279.188 26.4882 279.326 26.5203 279.467 26.5244C279.608 26.5284 279.749 26.5042 279.88 26.4533C280.011 26.4024 280.131 26.3257 280.233 26.2277C280.334 26.1298 280.415 26.0126 280.47 25.883L282.002 22.4082C282.116 22.1481 282.123 21.8531 282.02 21.5881C281.917 21.3232 281.713 21.1099 281.453 20.9953C281.193 20.8807 280.898 20.8741 280.633 20.977C280.368 21.0798 280.155 21.2838 280.04 21.5439L278.509 25.0187C278.451 25.147 278.419 25.2857 278.414 25.4266C278.41 25.5676 278.435 25.7079 278.486 25.8393C278.536 25.9708 278.613 26.0907 278.711 26.1921C278.809 26.2935 278.926 26.3743 279.056 26.4298H279.059Z" fill="url(#paint57_linear_1_2020)"/>
<path d="M276.356 30.0876L279.831 31.6186C279.96 31.6754 280.099 31.7062 280.239 31.7094C280.38 31.7125 280.52 31.6879 280.651 31.637C280.782 31.586 280.902 31.5098 281.004 31.4125C281.106 31.3152 281.187 31.1989 281.244 31.0701C281.301 30.9413 281.332 30.8026 281.335 30.6619C281.338 30.5212 281.313 30.3812 281.262 30.25C281.211 30.1188 281.135 29.9989 281.038 29.8972C280.941 29.7955 280.824 29.714 280.696 29.6572L277.221 28.1261C277.092 28.0694 276.953 28.0386 276.812 28.0354C276.672 28.0323 276.532 28.0569 276.401 28.1078C276.269 28.1588 276.15 28.235 276.048 28.3323C275.946 28.4296 275.865 28.5459 275.808 28.6747C275.751 28.8035 275.72 28.9422 275.717 29.0829C275.714 29.2236 275.739 29.3636 275.789 29.4948C275.84 29.626 275.917 29.7458 276.014 29.8476C276.111 29.9493 276.228 30.0308 276.356 30.0876Z" fill="url(#paint58_linear_1_2020)"/>
<path d="M285.772 43.5897C285.722 43.4581 285.646 43.3378 285.548 43.2361C285.451 43.1343 285.334 43.053 285.204 42.997L281.729 41.466C281.469 41.3514 281.174 41.3448 280.909 41.4477C280.644 41.5505 280.431 41.7545 280.317 42.0146C280.202 42.2747 280.195 42.5696 280.298 42.8346C280.401 43.0996 280.605 43.3128 280.865 43.4274L284.34 44.9585C284.534 45.0518 284.752 45.0837 284.964 45.05C285.177 45.0163 285.374 44.9186 285.53 44.7699C285.686 44.6211 285.792 44.4285 285.835 44.2176C285.879 44.0068 285.857 43.7877 285.772 43.5897Z" fill="url(#paint59_linear_1_2020)"/>
<path d="M298.289 42.1015C298.163 42.0381 298.026 42.0005 297.886 41.9908C297.745 41.9811 297.604 41.9996 297.471 42.0451L293.872 43.2551C293.603 43.3459 293.381 43.54 293.254 43.7947C293.128 44.0494 293.108 44.3439 293.199 44.6133C293.289 44.8828 293.483 45.1051 293.738 45.2315C293.993 45.3579 294.287 45.3779 294.557 45.2871L298.155 44.0771C298.361 44.0149 298.543 43.8915 298.677 43.7233C298.811 43.5552 298.89 43.3502 298.905 43.1356C298.92 42.9211 298.868 42.7073 298.758 42.5225C298.648 42.3378 298.485 42.191 298.289 42.1015Z" fill="url(#paint60_linear_1_2020)"/>
<path d="M286.588 27.1365C286.471 27.2162 286.372 27.3184 286.295 27.4371C286.219 27.5558 286.167 27.6886 286.143 27.8276C286.118 27.9667 286.122 28.1092 286.154 28.2468C286.185 28.3844 286.244 28.5142 286.327 28.6288L288.507 31.7367C288.67 31.9706 288.92 32.1301 289.2 32.18C289.481 32.23 289.77 32.1663 290.004 32.0031C290.238 31.8398 290.398 31.5903 290.448 31.3095C290.498 31.0286 290.434 30.7394 290.271 30.5055L288.091 27.3976C288.011 27.2795 287.908 27.1788 287.789 27.1015C287.669 27.0241 287.535 26.9716 287.395 26.9473C287.254 26.9229 287.111 26.9271 286.972 26.9596C286.833 26.9921 286.703 27.0523 286.588 27.1365Z" fill="url(#paint61_linear_1_2020)"/>
<path d="M294.518 22.5502C294.51 22.3359 294.437 22.129 294.308 21.957C294.18 21.7851 294.003 21.6561 293.8 21.5873C293.597 21.5184 293.377 21.5129 293.171 21.5715C292.965 21.63 292.781 21.7499 292.644 21.9152L290.143 24.7692C289.956 24.983 289.861 25.2623 289.88 25.5458C289.899 25.8293 290.03 26.0937 290.244 26.2808C290.457 26.4679 290.737 26.5625 291.02 26.5436C291.304 26.5248 291.568 26.3941 291.755 26.1803L294.256 23.3263C294.349 23.2208 294.42 23.0978 294.465 22.9645C294.51 22.8313 294.528 22.6904 294.518 22.5502Z" fill="url(#paint62_linear_1_2020)"/>
<path d="M287.572 48.5699C287.466 48.4772 287.343 48.4063 287.21 48.3612C287.076 48.3161 286.935 48.2977 286.795 48.307C286.655 48.3164 286.518 48.3533 286.391 48.4156C286.265 48.478 286.153 48.5645 286.06 48.6704C285.967 48.7763 285.897 48.8993 285.851 49.0326C285.806 49.1658 285.788 49.3067 285.797 49.447C285.807 49.5874 285.844 49.7246 285.906 49.8507C285.968 49.9768 286.055 50.0894 286.161 50.182L289.015 52.6832C289.228 52.8704 289.508 52.9649 289.791 52.946C290.075 52.9272 290.339 52.7965 290.526 52.5827C290.713 52.3689 290.808 52.0895 290.789 51.806C290.77 51.5226 290.639 51.2582 290.426 51.071L287.572 48.5699Z" fill="url(#paint63_linear_1_2020)"/>
<path d="M281.782 46.4374C281.684 46.3361 281.566 46.2555 281.436 46.2005C281.305 46.1455 281.165 46.1172 281.024 46.1172C280.882 46.1172 280.742 46.1455 280.612 46.2005C280.482 46.2555 280.364 46.3361 280.265 46.4374L277.581 49.1221C277.38 49.3232 277.267 49.596 277.267 49.8805C277.267 50.165 277.38 50.4378 277.581 50.639C277.782 50.8402 278.055 50.9532 278.339 50.9532C278.624 50.9532 278.897 50.8402 279.098 50.639L281.782 47.9544C281.884 47.8557 281.964 47.7378 282.019 47.6075C282.074 47.4773 282.103 47.3373 282.103 47.1959C282.103 47.0545 282.074 46.9145 282.019 46.7842C281.964 46.654 281.884 46.536 281.782 46.4374Z" fill="url(#paint64_linear_1_2020)"/>
<path d="M277.373 39.1062C277.268 39.0116 277.145 38.9389 277.011 38.8925C276.878 38.8462 276.736 38.827 276.595 38.8362C276.454 38.8454 276.316 38.8828 276.19 38.9462C276.063 39.0095 275.951 39.0975 275.859 39.205L273.358 42.059C273.171 42.2728 273.076 42.5521 273.095 42.8356C273.114 43.1191 273.245 43.3835 273.458 43.5706C273.672 43.7578 273.952 43.8523 274.235 43.8334C274.519 43.8146 274.783 43.6839 274.97 43.4701L277.471 40.6161C277.565 40.5112 277.638 40.3885 277.684 40.2553C277.73 40.1221 277.749 39.9811 277.74 39.8404C277.73 39.6998 277.693 39.5624 277.63 39.4363C277.567 39.3102 277.479 39.198 277.373 39.1062Z" fill="url(#paint65_linear_1_2020)"/>
<path d="M275.951 33.356C276.045 33.251 276.118 33.1281 276.165 32.9945C276.211 32.861 276.23 32.7195 276.221 32.5784C276.212 32.4374 276.174 32.2996 276.111 32.1732C276.048 32.0468 275.96 31.9344 275.852 31.8426C275.747 31.7479 275.624 31.6753 275.491 31.6289C275.357 31.5825 275.216 31.5634 275.074 31.5726C274.933 31.5818 274.796 31.6192 274.669 31.6825C274.543 31.7458 274.43 31.8338 274.339 31.9413L271.837 34.7953C271.65 35.0091 271.556 35.2885 271.575 35.572C271.593 35.8555 271.724 36.1198 271.938 36.307C272.152 36.4941 272.431 36.5886 272.715 36.5698C272.998 36.5509 273.262 36.4202 273.45 36.2064L275.951 33.356Z" fill="url(#paint66_linear_1_2020)"/>
<path d="M351.72 103.237H351.682C350.74 103.139 349.822 102.878 348.969 102.468C347.946 102.02 346.979 101.6 344.358 101.762C344.312 101.765 344.265 101.758 344.221 101.743C344.177 101.728 344.137 101.704 344.102 101.674C344.068 101.643 344.039 101.606 344.019 101.564C343.999 101.522 343.987 101.477 343.984 101.43C343.981 101.384 343.988 101.338 344.003 101.294C344.018 101.25 344.042 101.209 344.072 101.175C344.103 101.14 344.141 101.112 344.182 101.091C344.224 101.071 344.269 101.059 344.316 101.056C347.106 100.887 348.196 101.363 349.255 101.826C350.043 102.205 350.892 102.444 351.763 102.531C351.856 102.536 351.944 102.578 352.007 102.648C352.069 102.718 352.101 102.81 352.096 102.903C352.091 102.997 352.049 103.084 351.979 103.147C351.909 103.21 351.818 103.242 351.724 103.237H351.72Z" fill="#C98348"/>
<path d="M349.107 106.072C348.685 106.09 348.265 106.011 347.878 105.842C347.491 105.673 347.147 105.417 346.874 105.095C346.584 104.749 346.402 104.325 346.352 103.877C346.302 103.428 346.385 102.974 346.592 102.573C347.001 101.836 347.809 101.483 348.811 101.606C348.904 101.618 348.989 101.666 349.047 101.741C349.105 101.815 349.131 101.91 349.119 102.003C349.108 102.097 349.059 102.182 348.985 102.24C348.911 102.298 348.816 102.323 348.723 102.312C348.017 102.224 347.474 102.439 347.206 102.922C347.069 103.201 347.017 103.514 347.055 103.822C347.094 104.13 347.221 104.42 347.421 104.658C347.999 105.363 349.058 105.561 350.328 105.173C350.415 105.152 350.507 105.166 350.585 105.21C350.663 105.255 350.72 105.328 350.747 105.414C350.773 105.499 350.765 105.592 350.725 105.673C350.685 105.753 350.616 105.815 350.532 105.847C350.071 105.992 349.591 106.068 349.107 106.072Z" fill="#C98348"/>
<path d="M371.78 105.805C368.555 105.805 366.784 104.144 365.469 102.457C365.383 102.346 365.344 102.206 365.362 102.067C365.379 101.927 365.451 101.801 365.562 101.715C365.673 101.629 365.814 101.59 365.953 101.608C366.092 101.625 366.219 101.697 366.305 101.808C367.695 103.59 369.48 105.167 373.149 104.63C373.218 104.621 373.289 104.625 373.357 104.642C373.425 104.66 373.488 104.691 373.544 104.733C373.6 104.775 373.648 104.828 373.683 104.889C373.719 104.949 373.742 105.016 373.752 105.086C373.762 105.155 373.758 105.226 373.74 105.294C373.722 105.362 373.692 105.425 373.649 105.481C373.607 105.537 373.554 105.585 373.494 105.62C373.433 105.656 373.366 105.679 373.297 105.689C372.795 105.763 372.288 105.802 371.78 105.805Z" fill="#C98348"/>
<path d="M371.13 99.3713C371.037 99.3741 370.946 99.3396 370.878 99.2755C370.809 99.2113 370.77 99.1227 370.767 99.0291C370.764 98.9356 370.798 98.8447 370.863 98.7766C370.927 98.7084 371.015 98.6686 371.109 98.6658C374.351 98.4823 376.566 97.738 377.519 96.5209C377.738 96.2472 377.895 95.9288 377.978 95.5881C378.061 95.2474 378.068 94.8926 377.999 94.5489C377.907 94.062 376.739 92.9966 375.882 92.2135C375.36 91.7372 374.866 91.2857 374.538 90.9153C374.033 90.3473 373.917 89.4018 374.185 88.093C374.195 88.0467 374.214 88.0027 374.24 87.9637C374.267 87.9246 374.301 87.8912 374.341 87.8653C374.381 87.8394 374.425 87.8216 374.471 87.8128C374.518 87.8041 374.566 87.8046 374.612 87.8143C374.658 87.8241 374.702 87.8428 374.741 87.8695C374.78 87.8963 374.814 87.9304 374.84 87.97C374.866 88.0097 374.884 88.054 374.892 88.1006C374.901 88.1471 374.9 88.1949 374.891 88.2412C374.668 89.2784 374.732 90.0615 375.067 90.439C375.402 90.8165 375.854 91.2222 376.362 91.6878C377.688 92.9014 378.567 93.7445 378.694 94.4113C378.78 94.8541 378.769 95.3104 378.663 95.7487C378.556 96.1871 378.356 96.5973 378.076 96.9513C376.983 98.3624 374.651 99.1667 371.151 99.3643L371.13 99.3713Z" fill="#C98348"/>
<path d="M442.148 27.7539C441.884 27.7539 441.626 27.8321 441.407 27.9786C441.188 28.1252 441.017 28.3334 440.916 28.5771C440.815 28.8208 440.789 29.0889 440.84 29.3476C440.892 29.6062 441.019 29.8438 441.205 30.0303C441.391 30.2168 441.629 30.3438 441.888 30.3953C442.146 30.4467 442.415 30.4203 442.658 30.3194C442.902 30.2185 443.11 30.0475 443.257 29.8283C443.403 29.609 443.481 29.3511 443.481 29.0874C443.481 28.7337 443.341 28.3946 443.091 28.1445C442.841 27.8944 442.502 27.7539 442.148 27.7539Z" fill="url(#paint67_linear_1_2020)"/>
<path d="M438.136 31.2988C437.873 31.2988 437.615 31.377 437.395 31.5236C437.176 31.6701 437.005 31.8784 436.904 32.122C436.803 32.3657 436.777 32.6338 436.828 32.8925C436.88 33.1512 437.007 33.3888 437.193 33.5753C437.38 33.7618 437.617 33.8887 437.876 33.9402C438.135 33.9917 438.403 33.9653 438.647 33.8643C438.89 33.7634 439.098 33.5925 439.245 33.3732C439.392 33.1539 439.47 32.8961 439.47 32.6323C439.47 32.2787 439.329 31.9395 439.079 31.6894C438.829 31.4393 438.49 31.2988 438.136 31.2988Z" fill="url(#paint68_linear_1_2020)"/>
<path d="M438.281 25.4917C438.281 25.228 438.203 24.9701 438.057 24.7509C437.91 24.5316 437.702 24.3606 437.458 24.2597C437.214 24.1588 436.946 24.1324 436.688 24.1838C436.429 24.2353 436.191 24.3623 436.005 24.5488C435.818 24.7353 435.691 24.9729 435.64 25.2315C435.588 25.4902 435.615 25.7583 435.716 26.002C435.817 26.2457 435.988 26.4539 436.207 26.6005C436.426 26.747 436.684 26.8252 436.948 26.8252C437.301 26.8252 437.641 26.6847 437.891 26.4346C438.141 26.1845 438.281 25.8454 438.281 25.4917Z" fill="url(#paint69_linear_1_2020)"/>
<path d="M427.444 32.1035C427.18 32.1035 426.922 32.1817 426.703 32.3283C426.484 32.4748 426.313 32.683 426.212 32.9267C426.111 33.1704 426.085 33.4385 426.136 33.6972C426.187 33.9558 426.314 34.1935 426.501 34.3799C426.687 34.5664 426.925 34.6934 427.184 34.7449C427.442 34.7964 427.711 34.7699 427.954 34.669C428.198 34.5681 428.406 34.3972 428.553 34.1779C428.699 33.9586 428.777 33.7008 428.777 33.437C428.777 33.0833 428.637 32.7442 428.387 32.4941C428.137 32.244 427.798 32.1035 427.444 32.1035Z" fill="url(#paint70_linear_1_2020)"/>
<path d="M428.249 26.1445C427.985 26.1445 427.727 26.2227 427.508 26.3693C427.288 26.5158 427.117 26.7241 427.017 26.9677C426.916 27.2114 426.889 27.4795 426.941 27.7382C426.992 27.9969 427.119 28.2345 427.306 28.421C427.492 28.6074 427.73 28.7345 427.988 28.7859C428.247 28.8374 428.515 28.8109 428.759 28.71C429.003 28.6091 429.211 28.4382 429.357 28.2189C429.504 27.9996 429.582 27.7418 429.582 27.478C429.582 27.1244 429.442 26.7852 429.191 26.5351C428.941 26.285 428.602 26.1445 428.249 26.1445Z" fill="url(#paint71_linear_1_2020)"/>
<path d="M417.987 27.2266C417.723 27.2287 417.466 27.3091 417.248 27.4575C417.029 27.6059 416.86 27.8157 416.761 28.0604C416.662 28.3051 416.638 28.5736 416.692 28.8319C416.746 29.0903 416.875 29.3268 417.063 29.5117C417.252 29.6965 417.491 29.8214 417.75 29.8704C418.009 29.9194 418.277 29.8903 418.52 29.7869C418.763 29.6835 418.97 29.5104 419.114 29.2895C419.258 29.0686 419.334 28.8099 419.331 28.546C419.327 28.1929 419.184 27.8558 418.932 27.6084C418.68 27.3611 418.34 27.2238 417.987 27.2266Z" fill="url(#paint72_linear_1_2020)"/>
<path d="M430.4 20.623C430.136 20.623 429.878 20.7013 429.659 20.8478C429.44 20.9943 429.269 21.2026 429.168 21.4462C429.067 21.6899 429.041 21.958 429.092 22.2167C429.143 22.4754 429.271 22.713 429.457 22.8995C429.643 23.086 429.881 23.213 430.14 23.2644C430.398 23.3159 430.667 23.2895 430.91 23.1885C431.154 23.0876 431.362 22.9167 431.509 22.6974C431.655 22.4781 431.733 22.2203 431.733 21.9565C431.733 21.6029 431.593 21.2637 431.343 21.0136C431.093 20.7635 430.754 20.623 430.4 20.623Z" fill="url(#paint73_linear_1_2020)"/>
<path d="M433.501 28.0312C433.238 28.0312 432.98 28.1095 432.761 28.256C432.541 28.4025 432.37 28.6108 432.269 28.8544C432.169 29.0981 432.142 29.3662 432.194 29.6249C432.245 29.8836 432.372 30.1212 432.559 30.3077C432.745 30.4942 432.983 30.6212 433.241 30.6726C433.5 30.7241 433.768 30.6977 434.012 30.5967C434.255 30.4958 434.464 30.3249 434.61 30.1056C434.757 29.8863 434.835 29.6285 434.835 29.3648C434.835 29.0111 434.694 28.6719 434.444 28.4218C434.194 28.1717 433.855 28.0312 433.501 28.0312Z" fill="url(#paint74_linear_1_2020)"/>
<path d="M423.479 24.9629C423.215 24.9629 422.957 25.0411 422.738 25.1876C422.519 25.3342 422.348 25.5424 422.247 25.7861C422.146 26.0297 422.12 26.2979 422.171 26.5565C422.223 26.8152 422.35 27.0528 422.536 27.2393C422.723 27.4258 422.96 27.5528 423.219 27.6043C423.478 27.6557 423.746 27.6293 423.989 27.5284C424.233 27.4274 424.441 27.2565 424.588 27.0372C424.734 26.818 424.813 26.5601 424.813 26.2964C424.813 25.9427 424.672 25.6035 424.422 25.3535C424.172 25.1034 423.833 24.9629 423.479 24.9629Z" fill="url(#paint75_linear_1_2020)"/>
<path d="M366.803 91.0921C367.547 90.9592 367.99 89.9527 367.792 88.8441C367.594 87.7356 366.83 86.9447 366.086 87.0776C365.342 87.2106 364.899 88.217 365.097 89.3256C365.295 90.4342 366.059 91.2251 366.803 91.0921Z" fill="#654B1E"/>
<path d="M378.393 89.6476C379.065 89.5276 379.464 88.6203 379.285 87.6211C379.107 86.6218 378.418 85.909 377.747 86.0289C377.075 86.1489 376.676 87.0561 376.855 88.0554C377.033 89.0547 377.722 89.7675 378.393 89.6476Z" fill="#654B1E"/>
<path d="M367.472 120.662L363.517 126.352C356.307 122.055 355.051 111.535 355.051 111.535C355.051 111.535 361.274 118.404 367.472 120.662Z" fill="#E5AD83"/>
<path d="M364 93.7149C364.354 93.7149 364.642 93.4276 364.642 93.0733C364.642 92.7189 364.354 92.4316 364 92.4316C363.646 92.4316 363.358 92.7189 363.358 93.0733C363.358 93.4276 363.646 93.7149 364 93.7149Z" fill="#E5AD83"/>
<path d="M369.384 94.8789C369.738 94.8789 370.025 94.5917 370.025 94.2373C370.025 93.883 369.738 93.5957 369.384 93.5957C369.029 93.5957 368.742 93.883 368.742 94.2373C368.742 94.5917 369.029 94.8789 369.384 94.8789Z" fill="#E5AD83"/>
<path d="M373.218 93.2071C373.572 93.2071 373.859 92.9198 373.859 92.5655C373.859 92.2111 373.572 91.9238 373.218 91.9238C372.863 91.9238 372.576 92.2111 372.576 92.5655C372.576 92.9198 372.863 93.2071 373.218 93.2071Z" fill="#E5AD83"/>
<path d="M379.039 92.3243C379.393 92.3243 379.681 92.037 379.681 91.6826C379.681 91.3283 379.393 91.041 379.039 91.041C378.685 91.041 378.397 91.3283 378.397 91.6826C378.397 92.037 378.685 92.3243 379.039 92.3243Z" fill="#E5AD83"/>
<path d="M371.13 91.9219C371.484 91.9219 371.771 91.6346 371.771 91.2803C371.771 90.9259 371.484 90.6387 371.13 90.6387C370.776 90.6387 370.488 90.9259 370.488 91.2803C370.488 91.6346 370.776 91.9219 371.13 91.9219Z" fill="#E5AD83"/>
<path d="M357.749 134.655L356.006 137.163C355.336 138.193 348.083 139.848 343.331 135.752C341.487 134.229 340.118 132.209 339.385 129.933C338.652 127.656 338.585 125.217 339.193 122.904L341.38 119.26C340.95 124.333 342.192 129.815 346.672 132.919C349.956 135.188 354.066 135.29 357.749 134.655Z" fill="url(#paint76_linear_1_2020)"/>
<path d="M426.259 0.416452C425.242 0.416301 424.265 0.815933 423.539 1.52924C422.813 2.24255 422.396 3.21245 422.379 4.22998V4.28289C422.379 5.05039 422.606 5.80066 423.033 6.43881C423.459 7.07696 424.065 7.57434 424.774 7.86805C425.484 8.16176 426.264 8.23861 427.017 8.08888C427.769 7.93915 428.461 7.56956 429.003 7.02685C429.546 6.48415 429.916 5.79271 430.065 5.03995C430.215 4.2872 430.138 3.50695 429.845 2.79787C429.551 2.08879 429.054 1.48274 428.415 1.05633C427.777 0.629935 427.027 0.402344 426.259 0.402344V0.416452Z" fill="url(#paint77_linear_1_2020)"/>
<path d="M207.967 232.328C223.101 236.318 246.719 237.595 260.778 236.586C278.984 235.281 298.094 226.775 321.102 229.647C344.111 232.518 345.444 238.964 335.319 247.571C325.195 256.179 277.111 265.563 277.111 265.563L207.967 232.328Z" fill="url(#paint78_linear_1_2020)"/>
<path d="M369.913 448.831C368.932 469.084 311.705 482.302 242.105 478.358C172.506 474.414 116.869 454.793 117.847 434.54C118.824 414.287 176.055 401.068 245.654 405.012C315.254 408.956 370.894 428.578 369.913 448.831Z" fill="url(#paint79_linear_1_2020)"/>
<path d="M353.527 449.986C346.316 464.207 300.279 472.987 244.741 470.147L242.525 470.031C185.284 466.803 138.77 452.392 133.842 437.036C137.017 433.032 140.654 429.712 144.757 427.691C154.028 423.122 165.161 418.723 177.001 412.846C190.861 405.963 205.685 397.052 219.605 383.459C226.552 376.672 231.692 371.465 235.48 367.344C245.806 356.197 246.314 353.262 246.572 349.522C246.925 344.407 249.341 299.59 248.688 296.606C248.434 295.452 243.146 291.773 235.911 286.851C224.435 279.02 208.017 268.084 199.144 259.211C184.681 244.747 178.683 235.575 180.094 233.282C181.506 230.989 193.676 224.639 220.311 235.222C241.478 243.633 260.429 249.369 281.035 251.369C286.358 251.888 291.791 252.156 297.403 252.156C324.306 252.156 334.981 247.711 335.309 247.57C334.83 247.922 310.149 266.842 279.747 280.833C261.403 289.268 251.913 295.187 251.835 296.955C251.556 303.305 250.946 346.696 250.946 349.586C250.946 352.475 251.835 365.605 273.852 384.962C286.905 396.445 311.952 412.299 330.512 426.149C343.413 435.787 353.156 444.444 353.527 449.986Z" fill="url(#paint80_linear_1_2020)"/>
<path opacity="0.5" d="M307.832 358.309C307.832 358.309 363.511 388.545 363.511 449.018L335.67 461.757C335.67 461.757 361.669 440.904 307.832 358.309Z" fill="url(#paint81_linear_1_2020)"/>
<path d="M379.466 129.868C379.618 128.837 379.695 127.795 379.696 126.753C379.652 126.336 379.516 125.935 379.297 125.578C379.406 125.617 383.844 127.084 386.529 126.351C389.083 125.649 385.068 131.318 379.466 129.868Z" fill="#E5AD83"/>
<path d="M319.232 170.438H319.211C319.165 170.435 319.119 170.423 319.078 170.403C319.036 170.383 318.999 170.354 318.968 170.32C318.937 170.285 318.913 170.244 318.898 170.2C318.883 170.156 318.877 170.11 318.88 170.064C318.88 170.064 319.017 167.728 319.208 164.183C319.324 162.017 319.476 159.128 319.624 155.97C319.772 152.813 319.906 149.835 320.008 147.108C320.012 147.015 320.053 146.927 320.122 146.863C320.191 146.8 320.282 146.766 320.375 146.77C320.469 146.774 320.557 146.814 320.621 146.883C320.684 146.952 320.718 147.043 320.714 147.137C320.608 149.867 320.478 152.852 320.329 156.006C320.181 159.159 320.03 162.056 319.913 164.225C319.723 167.774 319.585 170.113 319.585 170.113C319.578 170.202 319.538 170.284 319.472 170.344C319.407 170.405 319.321 170.438 319.232 170.438Z" fill="#609640"/>
<path d="M210.596 155.261C210.549 155.263 210.503 155.256 210.46 155.24C210.416 155.224 210.376 155.2 210.342 155.168C210.308 155.137 210.28 155.099 210.261 155.057C210.242 155.015 210.231 154.969 210.229 154.923C210.227 154.876 210.234 154.83 210.25 154.787C210.266 154.743 210.291 154.703 210.322 154.669C210.354 154.635 210.391 154.608 210.434 154.588C210.476 154.569 210.521 154.558 210.567 154.556L211.072 154.521C211.473 154.522 211.872 154.454 212.25 154.32C214.946 153.301 217.699 152.438 220.495 151.737C228.478 149.726 235.886 149.233 242.508 150.27C245.571 150.732 248.561 151.588 251.405 152.817C251.486 152.857 251.548 152.927 251.579 153.012C251.609 153.097 251.606 153.191 251.57 153.273C251.534 153.356 251.467 153.422 251.384 153.457C251.301 153.492 251.207 153.494 251.123 153.462C248.335 152.258 245.404 151.418 242.402 150.965C235.872 149.942 228.563 150.432 220.671 152.418C217.902 153.114 215.175 153.969 212.504 154.979C212.059 155.14 211.591 155.223 211.118 155.226L210.634 155.258L210.596 155.261Z" fill="#B68B2D"/>
<path d="M180.772 86.1419C180.74 86.2513 180.708 86.3607 180.669 86.4665C179.85 88.6398 178.706 90.6762 177.276 92.506C173.575 97.4449 168.664 101.297 168.664 101.297C168.664 101.297 157.397 101.371 156.222 94.1782L155.047 86.9816C155.047 86.9816 148.718 90.5905 148.147 88.2304C147.749 86.2765 147.587 84.2821 147.663 82.2896C147.699 79.4674 147.977 76.2536 148.337 73.068C148.549 71.1701 148.792 69.2827 149.043 67.4906C149.463 64.3403 149.868 61.4934 150.076 59.4155C150.26 57.627 150.295 56.4134 150.076 56.0783C148.976 54.4625 145.526 47.2588 146.774 44.7894C147.481 43.4003 148.346 42.0981 149.353 40.9088C150.138 39.9651 151.055 39.1403 152.077 38.4606C153.296 37.6253 154.773 37.2502 156.243 37.4022C163.817 38.3512 172.118 50.5432 171.589 55.3939C171.06 60.2446 171.236 61.5604 172.467 63.6877C173.698 65.8149 182.969 78.6737 180.772 86.1419Z" fill="url(#paint82_linear_1_2020)"/>
<path d="M160.692 66.5561C157.951 67.8049 151.696 75.4814 147.664 82.29C147.699 79.4678 147.978 76.254 148.338 73.0684C153.414 64.323 159.842 60.0156 159.842 60.0156L160.692 66.5561Z" fill="url(#paint83_linear_1_2020)"/>
<path d="M159.63 55.3573C155.75 58.4088 151.488 64.1344 149.047 67.4823C149.467 64.332 149.872 61.4851 150.081 59.4072C152.998 54.7929 157.09 50.1715 157.214 50.1292C157.337 50.0868 159.63 55.3573 159.63 55.3573Z" fill="url(#paint84_linear_1_2020)"/>
<path d="M180.771 86.1405C180.739 86.2498 180.708 86.3592 180.669 86.465C179.85 88.6383 178.705 90.6747 177.275 92.5046C168.974 93.383 165.489 90.141 163.795 88.6734C161.862 86.9977 159.823 76.866 159.425 65.4572C159.026 54.0483 157.033 51.5754 154.637 47.9841C153.166 45.7757 150.877 43.5038 149.346 40.8756C150.13 39.9318 151.047 39.1071 152.069 38.4274C153.289 37.592 154.765 37.217 156.235 37.369C163.81 38.318 172.11 50.51 171.581 55.3607C171.052 60.2114 171.228 61.5272 172.46 63.6545C173.691 65.7817 182.969 78.6722 180.771 86.1405Z" fill="url(#paint85_linear_1_2020)"/>
<path d="M180.771 86.1413C177.596 87.3125 172.305 88.5543 168.512 85.8238C162.769 81.6751 163.796 71.6245 161.968 61.4822C160.356 52.5181 158.44 48.4753 154.708 44.8064C152.059 42.2135 151.364 40.432 152.055 38.4176C153.275 37.5823 154.751 37.2072 156.221 37.3593C163.796 38.3082 172.096 50.5002 171.567 55.3509C171.038 60.2016 171.214 61.5175 172.446 63.6447C173.677 65.7719 182.969 78.673 180.771 86.1413Z" fill="url(#paint86_linear_1_2020)"/>
<path d="M110.752 92.1099C106.843 95.4754 102.518 96.696 94.3199 95.352C89.0282 94.4771 86.9115 96.2127 85.3346 97.5074C84.1704 98.4635 83.3026 99.1796 81.6516 98.407C78.6213 96.9959 71.2976 91.6478 66.4822 89.517C65.9104 89.2541 65.321 89.0313 64.7183 88.8503C60.1569 87.5485 57.444 87.6579 55.0522 86.5713C53.0061 85.64 49.9228 82.1581 51.8772 77.7519C52.2501 76.9336 52.7319 76.1694 53.3095 75.48C53.5053 75.241 53.7175 75.0158 53.9445 74.8062C59.1303 69.9097 74.1374 68.3575 76.113 68.869C78.1767 69.3981 79.8066 70.8093 83.2814 70.3753C86.6998 69.9485 102.398 64.6921 106.738 70.4036C106.814 70.4997 106.886 70.5998 106.953 70.7034C107.89 72.2673 108.583 73.9648 109.009 75.7376C110.886 82.7684 110.752 92.1099 110.752 92.1099Z" fill="url(#paint87_linear_1_2020)"/>
<path d="M76.7841 74.6309L83.6315 75.2659C83.6315 75.2659 82.044 86.1808 75.4471 93.4797L71.6406 91.0103C71.6406 91.0103 76.9323 83.0058 76.7841 74.6309Z" fill="url(#paint88_linear_1_2020)"/>
<path d="M88.4005 75.6465L93.3393 76.5672C93.3393 76.5672 90.2949 91.1299 83.2499 97.2858L79.1895 94.9998C79.1895 94.9998 85.483 87.461 88.4005 75.6465Z" fill="url(#paint89_linear_1_2020)"/>
<path d="M85.3348 97.5085C84.1707 98.4645 83.3028 99.1806 81.6518 98.408C78.6215 96.9969 71.2978 91.6488 66.4824 89.518C67.4384 89.0594 68.5568 88.6326 69.3293 88.6573C70.7052 88.7031 82.0187 95.5011 85.3348 97.5085Z" fill="url(#paint90_linear_1_2020)"/>
<path d="M109.009 75.7512C106.737 78.323 104.307 78.9439 97.805 77.815C90.7989 76.5944 85.5883 76.2628 72.3133 75.7759C62.9965 75.4231 57.2886 76.291 51.877 77.7656C52.2499 76.9472 52.7317 76.183 53.3092 75.4937C53.505 75.2547 53.7172 75.0295 53.9442 74.8199C59.13 69.9234 74.1372 68.3711 76.1127 68.8827C78.1765 69.4118 79.8063 70.8229 83.2812 70.389C86.6996 69.9621 102.398 64.7058 106.737 70.4172C106.814 70.5134 106.886 70.6135 106.953 70.7171C107.89 72.281 108.583 73.9785 109.009 75.7512Z" fill="url(#paint91_linear_1_2020)"/>
<path d="M106.738 70.4174C105.347 71.3885 103.794 72.1052 102.152 72.534C98.4834 73.4019 82.5449 74.0686 76.6712 73.5924C69.0806 73.0256 61.4486 73.437 53.9629 74.8165C59.1487 69.92 74.1559 68.3677 76.1314 68.8793C78.1952 69.4084 79.825 70.8195 83.2998 70.3856C86.7006 69.9623 102.399 64.7059 106.738 70.4174Z" fill="url(#paint92_linear_1_2020)"/>
<path d="M242.028 321.113C242.028 321.113 169.804 371.229 160.935 395.902L133.842 397.828C133.842 397.828 158.893 353.103 242.028 321.113Z" fill="white"/>
<path opacity="0.25" d="M212.656 259.225C212.656 259.225 187.609 239.596 179.523 215.48L192.414 217.008C192.414 217.008 202.14 244.024 212.656 259.225Z" fill="url(#paint93_linear_1_2020)"/>
<defs>
<linearGradient id="paint0_linear_1_2020" x1="428.032" y1="-2.95474" x2="434.887" y2="7.28993" gradientUnits="userSpaceOnUse">
<stop stop-color="#DBE8C4"/>
<stop offset="1" stop-color="#AAC76F"/>
</linearGradient>
<linearGradient id="paint1_linear_1_2020" x1="408.32" y1="10.2355" x2="415.17" y2="20.4802" gradientUnits="userSpaceOnUse">
<stop stop-color="#DBE8C4"/>
<stop offset="1" stop-color="#AAC76F"/>
</linearGradient>
<linearGradient id="paint2_linear_1_2020" x1="417.915" y1="16.1611" x2="415.591" y2="9.98753" gradientUnits="userSpaceOnUse">
<stop stop-color="#51823B"/>
<stop offset="1" stop-color="#AAC76F"/>
</linearGradient>
<linearGradient id="paint3_linear_1_2020" x1="402.834" y1="22.8847" x2="406.341" y2="26.1337" gradientUnits="userSpaceOnUse">
<stop stop-color="#E94E4E"/>
<stop offset="1" stop-color="#D33332"/>
</linearGradient>
<linearGradient id="paint4_linear_1_2020" x1="407.273" y1="27.1068" x2="404.207" y2="24.4257" gradientUnits="userSpaceOnUse">
<stop stop-color="#E94E4E"/>
<stop offset="1" stop-color="#D33332"/>
</linearGradient>
<linearGradient id="paint5_linear_1_2020" x1="404.906" y1="27.1928" x2="401.66" y2="27.6055" gradientUnits="userSpaceOnUse">
<stop stop-color="#E94E4E"/>
<stop offset="1" stop-color="#D33332"/>
</linearGradient>
<linearGradient id="paint6_linear_1_2020" x1="407.741" y1="24.4713" x2="405.251" y2="19.3314" gradientUnits="userSpaceOnUse">
<stop stop-color="#E94E4E"/>
<stop offset="1" stop-color="#D33332"/>
</linearGradient>
<linearGradient id="paint7_linear_1_2020" x1="416.099" y1="19.3689" x2="423.246" y2="34.6829" gradientUnits="userSpaceOnUse">
<stop stop-color="#C98348"/>
<stop offset="1" stop-color="#DD9127"/>
</linearGradient>
<linearGradient id="paint8_linear_1_2020" x1="116.887" y1="315.132" x2="391.549" y2="323.048" gradientUnits="userSpaceOnUse">
<stop stop-color="white"/>
<stop offset="1" stop-color="#DDF1F3"/>
</linearGradient>
<linearGradient id="paint9_linear_1_2020" x1="226.319" y1="294.351" x2="242.593" y2="238.95" gradientUnits="userSpaceOnUse">
<stop stop-color="white"/>
<stop offset="1" stop-color="#DDF1F3"/>
</linearGradient>
<linearGradient id="paint10_linear_1_2020" x1="88.9903" y1="101.613" x2="85.8682" y2="93.9829" gradientUnits="userSpaceOnUse">
<stop stop-color="white"/>
<stop offset="1" stop-color="#DDF1F3"/>
</linearGradient>
<linearGradient id="paint11_linear_1_2020" x1="146.062" y1="97.6145" x2="154.296" y2="87.2675" gradientUnits="userSpaceOnUse">
<stop stop-color="white"/>
<stop offset="1" stop-color="#DDF1F3"/>
</linearGradient>
<linearGradient id="paint12_linear_1_2020" x1="363.447" y1="175.946" x2="368.224" y2="177.974" gradientUnits="userSpaceOnUse">
<stop stop-color="#51823B"/>
<stop offset="1" stop-color="#AAC76F"/>
</linearGradient>
<linearGradient id="paint13_linear_1_2020" x1="271.385" y1="157.465" x2="282.025" y2="194.366" gradientUnits="userSpaceOnUse">
<stop stop-color="#DBE8C4"/>
<stop offset="1" stop-color="#AAC76F"/>
</linearGradient>
<linearGradient id="paint14_linear_1_2020" x1="293.23" y1="169.544" x2="296.864" y2="179.122" gradientUnits="userSpaceOnUse">
<stop stop-color="#51823B"/>
<stop offset="1" stop-color="#AAC76F"/>
</linearGradient>
<linearGradient id="paint15_linear_1_2020" x1="335.274" y1="110.819" x2="350.111" y2="184.091" gradientUnits="userSpaceOnUse">
<stop stop-color="#DBE8C4"/>
<stop offset="1" stop-color="#AAC76F"/>
</linearGradient>
<linearGradient id="paint16_linear_1_2020" x1="345.98" y1="142.003" x2="396.287" y2="159.077" gradientUnits="userSpaceOnUse">
<stop stop-color="#DBE8C4"/>
<stop offset="1" stop-color="#AAC76F"/>
</linearGradient>
<linearGradient id="paint17_linear_1_2020" x1="366.932" y1="188.349" x2="369.973" y2="158.899" gradientUnits="userSpaceOnUse">
<stop stop-color="#51823B"/>
<stop offset="1" stop-color="#AAC76F"/>
</linearGradient>
<linearGradient id="paint18_linear_1_2020" x1="295.851" y1="137.015" x2="312.953" y2="159.106" gradientUnits="userSpaceOnUse">
<stop stop-color="#DBE8C4"/>
<stop offset="1" stop-color="#AAC76F"/>
</linearGradient>
<linearGradient id="paint19_linear_1_2020" x1="327.972" y1="128.507" x2="359.51" y2="182.14" gradientUnits="userSpaceOnUse">
<stop stop-color="#52BEB8"/>
<stop offset="1" stop-color="#308B85"/>
</linearGradient>
<linearGradient id="paint20_linear_1_2020" x1="304.504" y1="106.028" x2="337.521" y2="104.208" gradientUnits="userSpaceOnUse">
<stop stop-color="#6B6865"/>
<stop offset="1" stop-color="#51504D"/>
</linearGradient>
<linearGradient id="paint21_linear_1_2020" x1="353.319" y1="65.4999" x2="365.017" y2="83.4351" gradientUnits="userSpaceOnUse">
<stop stop-color="#6B6865"/>
<stop offset="1" stop-color="#51504D"/>
</linearGradient>
<linearGradient id="paint22_linear_1_2020" x1="346.175" y1="97.9247" x2="346.15" y2="99.6533" gradientUnits="userSpaceOnUse">
<stop stop-color="#6B6865"/>
<stop offset="1" stop-color="#51504D"/>
</linearGradient>
<linearGradient id="paint23_linear_1_2020" x1="148.199" y1="101.653" x2="162.67" y2="108.796" gradientUnits="userSpaceOnUse">
<stop stop-color="#52BEB8"/>
<stop offset="1" stop-color="#308B85"/>
</linearGradient>
<linearGradient id="paint24_linear_1_2020" x1="95.1386" y1="110.065" x2="108.886" y2="98.8003" gradientUnits="userSpaceOnUse">
<stop stop-color="#52BEB8"/>
<stop offset="1" stop-color="#308B85"/>
</linearGradient>
<linearGradient id="paint25_linear_1_2020" x1="211.104" y1="154.027" x2="209.463" y2="147.141" gradientUnits="userSpaceOnUse">
<stop stop-color="#C98348"/>
<stop offset="1" stop-color="#DD9127"/>
</linearGradient>
<linearGradient id="paint26_linear_1_2020" x1="193.147" y1="174.989" x2="185.545" y2="163.069" gradientUnits="userSpaceOnUse">
<stop stop-color="#C98348"/>
<stop offset="1" stop-color="#DD9127"/>
</linearGradient>
<linearGradient id="paint27_linear_1_2020" x1="234.087" y1="144.957" x2="233.18" y2="153.638" gradientUnits="userSpaceOnUse">
<stop stop-color="#F3CE63"/>
<stop offset="1" stop-color="#D2A651"/>
</linearGradient>
<linearGradient id="paint28_linear_1_2020" x1="220.861" y1="151.55" x2="225.158" y2="173.845" gradientUnits="userSpaceOnUse">
<stop stop-color="#F3CE63"/>
<stop offset="1" stop-color="#D2A651"/>
</linearGradient>
<linearGradient id="paint29_linear_1_2020" x1="245.002" y1="161.266" x2="268.687" y2="187.506" gradientUnits="userSpaceOnUse">
<stop offset="0.04" stop-color="#654B1E"/>
<stop offset="1" stop-color="#2E1D12"/>
</linearGradient>
<linearGradient id="paint30_linear_1_2020" x1="245.153" y1="141.573" x2="238.186" y2="147.327" gradientUnits="userSpaceOnUse">
<stop stop-color="#F3CE63"/>
<stop offset="1" stop-color="#D2A651"/>
</linearGradient>
<linearGradient id="paint31_linear_1_2020" x1="256.526" y1="148.121" x2="225.814" y2="157.226" gradientUnits="userSpaceOnUse">
<stop stop-color="#F3CE63"/>
<stop offset="1" stop-color="#D2A651"/>
</linearGradient>
<linearGradient id="paint32_linear_1_2020" x1="220.075" y1="120.293" x2="283.278" y2="168.074" gradientUnits="userSpaceOnUse">
<stop stop-color="#F3CE63"/>
<stop offset="1" stop-color="#D2A651"/>
</linearGradient>
<linearGradient id="paint33_linear_1_2020" x1="206.179" y1="134.839" x2="270.822" y2="183.706" gradientUnits="userSpaceOnUse">
<stop stop-color="#F3CE63"/>
<stop offset="1" stop-color="#D2A651"/>
</linearGradient>
<linearGradient id="paint34_linear_1_2020" x1="313.331" y1="177.01" x2="290.228" y2="153.074" gradientUnits="userSpaceOnUse">
<stop stop-color="#51823B"/>
<stop offset="1" stop-color="#AAC76F"/>
</linearGradient>
<linearGradient id="paint35_linear_1_2020" x1="462.189" y1="134.83" x2="520.881" y2="76.459" gradientUnits="userSpaceOnUse">
<stop stop-color="#F3CE63"/>
<stop offset="1" stop-color="#D2A651"/>
</linearGradient>
<linearGradient id="paint36_linear_1_2020" x1="462.514" y1="115.634" x2="473.609" y2="131.424" gradientUnits="userSpaceOnUse">
<stop stop-color="#F3CE63"/>
<stop offset="1" stop-color="#D2A651"/>
</linearGradient>
<linearGradient id="paint37_linear_1_2020" x1="468.595" y1="213.527" x2="468.595" y2="209.65" gradientUnits="userSpaceOnUse">
<stop stop-color="#F9CBA2"/>
<stop offset="1" stop-color="#FCD7BA"/>
</linearGradient>
<linearGradient id="paint38_linear_1_2020" x1="459.787" y1="214.904" x2="460.919" y2="222.316" gradientUnits="userSpaceOnUse">
<stop stop-color="#ECDE74"/>
<stop offset="1" stop-color="#F3CE63"/>
</linearGradient>
<linearGradient id="paint39_linear_1_2020" x1="453.271" y1="219.995" x2="451.331" y2="231.587" gradientUnits="userSpaceOnUse">
<stop stop-color="#DBE8C4"/>
<stop offset="1" stop-color="#AAC76F"/>
</linearGradient>
<linearGradient id="paint40_linear_1_2020" x1="453.787" y1="211.435" x2="453.677" y2="208.263" gradientUnits="userSpaceOnUse">
<stop stop-color="#F9CBA2"/>
<stop offset="1" stop-color="#FCD7BA"/>
</linearGradient>
<linearGradient id="paint41_linear_1_2020" x1="444.839" y1="211.555" x2="445.545" y2="218.896" gradientUnits="userSpaceOnUse">
<stop stop-color="#ECDE74"/>
<stop offset="1" stop-color="#F3CE63"/>
</linearGradient>
<linearGradient id="paint42_linear_1_2020" x1="436.933" y1="214.707" x2="436.485" y2="225.305" gradientUnits="userSpaceOnUse">
<stop stop-color="#DBE8C4"/>
<stop offset="1" stop-color="#AAC76F"/>
</linearGradient>
<linearGradient id="paint43_linear_1_2020" x1="490.87" y1="115.055" x2="494.415" y2="105.833" gradientUnits="userSpaceOnUse">
<stop stop-color="#C98348"/>
<stop offset="1" stop-color="#DD9127"/>
</linearGradient>
<linearGradient id="paint44_linear_1_2020" x1="500.205" y1="131.932" x2="499.15" y2="124.333" gradientUnits="userSpaceOnUse">
<stop stop-color="#C98348"/>
<stop offset="1" stop-color="#DD9127"/>
</linearGradient>
<linearGradient id="paint45_linear_1_2020" x1="480.159" y1="106.801" x2="479.485" y2="113.715" gradientUnits="userSpaceOnUse">
<stop stop-color="#E94E4E"/>
<stop offset="1" stop-color="#D33332"/>
</linearGradient>
<linearGradient id="paint46_linear_1_2020" x1="471.358" y1="116.167" x2="472.187" y2="122.718" gradientUnits="userSpaceOnUse">
<stop stop-color="#E94E4E"/>
<stop offset="1" stop-color="#D33332"/>
</linearGradient>
<linearGradient id="paint47_linear_1_2020" x1="458.855" y1="113.733" x2="459.716" y2="119.331" gradientUnits="userSpaceOnUse">
<stop stop-color="#E94E4E"/>
<stop offset="1" stop-color="#D33332"/>
</linearGradient>
<linearGradient id="paint48_linear_1_2020" x1="483.507" y1="119.133" x2="481.955" y2="109.298" gradientUnits="userSpaceOnUse">
<stop stop-color="#51823B"/>
<stop offset="1" stop-color="#AAC76F"/>
</linearGradient>
<linearGradient id="paint49_linear_1_2020" x1="470.726" y1="111.793" x2="467.58" y2="103.442" gradientUnits="userSpaceOnUse">
<stop stop-color="#51823B"/>
<stop offset="1" stop-color="#AAC76F"/>
</linearGradient>
<linearGradient id="paint50_linear_1_2020" x1="450.171" y1="128.143" x2="451.211" y2="115.426" gradientUnits="userSpaceOnUse">
<stop stop-color="#51823B"/>
<stop offset="1" stop-color="#AAC76F"/>
</linearGradient>
<linearGradient id="paint51_linear_1_2020" x1="290.87" y1="49.5762" x2="284.216" y2="28.1414" gradientUnits="userSpaceOnUse">
<stop stop-color="#C98348"/>
<stop offset="1" stop-color="#DD9127"/>
</linearGradient>
<linearGradient id="paint52_linear_1_2020" x1="279.267" y1="20.8425" x2="292.362" y2="48.0593" gradientUnits="userSpaceOnUse">
<stop stop-color="white"/>
<stop offset="1" stop-color="#DDF1F3"/>
</linearGradient>
<linearGradient id="paint53_linear_1_2020" x1="286.171" y1="33.2276" x2="287.617" y2="40.0291" gradientUnits="userSpaceOnUse">
<stop stop-color="#C98348"/>
<stop offset="1" stop-color="#DD9127"/>
</linearGradient>
<linearGradient id="paint54_linear_1_2020" x1="293.883" y1="33.3386" x2="298.709" y2="33.3386" gradientUnits="userSpaceOnUse">
<stop stop-color="#52BEB8"/>
<stop offset="1" stop-color="#308B85"/>
</linearGradient>
<linearGradient id="paint55_linear_1_2020" x1="294.902" y1="27.3161" x2="300.519" y2="27.3161" gradientUnits="userSpaceOnUse">
<stop stop-color="#52BEB8"/>
<stop offset="1" stop-color="#308B85"/>
</linearGradient>
<linearGradient id="paint56_linear_1_2020" x1="281.73" y1="25.217" x2="287.516" y2="25.217" gradientUnits="userSpaceOnUse">
<stop stop-color="#52BEB8"/>
<stop offset="1" stop-color="#308B85"/>
</linearGradient>
<linearGradient id="paint57_linear_1_2020" x1="278.421" y1="23.7099" x2="282.097" y2="23.7099" gradientUnits="userSpaceOnUse">
<stop stop-color="#52BEB8"/>
<stop offset="1" stop-color="#308B85"/>
</linearGradient>
<linearGradient id="paint58_linear_1_2020" x1="275.714" y1="29.8724" x2="281.331" y2="29.8724" gradientUnits="userSpaceOnUse">
<stop stop-color="#52BEB8"/>
<stop offset="1" stop-color="#308B85"/>
</linearGradient>
<linearGradient id="paint59_linear_1_2020" x1="280.227" y1="43.2122" x2="285.846" y2="43.2122" gradientUnits="userSpaceOnUse">
<stop stop-color="#52BEB8"/>
<stop offset="1" stop-color="#308B85"/>
</linearGradient>
<linearGradient id="paint60_linear_1_2020" x1="293.142" y1="43.6643" x2="298.882" y2="43.6643" gradientUnits="userSpaceOnUse">
<stop stop-color="#52BEB8"/>
<stop offset="1" stop-color="#308B85"/>
</linearGradient>
<linearGradient id="paint61_linear_1_2020" x1="286.133" y1="29.5671" x2="290.458" y2="29.5671" gradientUnits="userSpaceOnUse">
<stop stop-color="#52BEB8"/>
<stop offset="1" stop-color="#308B85"/>
</linearGradient>
<linearGradient id="paint62_linear_1_2020" x1="289.875" y1="24.053" x2="294.521" y2="24.053" gradientUnits="userSpaceOnUse">
<stop stop-color="#52BEB8"/>
<stop offset="1" stop-color="#308B85"/>
</linearGradient>
<linearGradient id="paint63_linear_1_2020" x1="285.794" y1="50.6265" x2="290.793" y2="50.6265" gradientUnits="userSpaceOnUse">
<stop stop-color="#52BEB8"/>
<stop offset="1" stop-color="#308B85"/>
</linearGradient>
<linearGradient id="paint64_linear_1_2020" x1="277.27" y1="48.5364" x2="282.096" y2="48.5364" gradientUnits="userSpaceOnUse">
<stop stop-color="#52BEB8"/>
<stop offset="1" stop-color="#308B85"/>
</linearGradient>
<linearGradient id="paint65_linear_1_2020" x1="273.09" y1="41.3393" x2="277.736" y2="41.3393" gradientUnits="userSpaceOnUse">
<stop stop-color="#52BEB8"/>
<stop offset="1" stop-color="#308B85"/>
</linearGradient>
<linearGradient id="paint66_linear_1_2020" x1="271.569" y1="34.0756" x2="276.215" y2="34.0756" gradientUnits="userSpaceOnUse">
<stop stop-color="#52BEB8"/>
<stop offset="1" stop-color="#308B85"/>
</linearGradient>
<linearGradient id="paint67_linear_1_2020" x1="444.476" y1="24.332" x2="448.103" y2="16.9272" gradientUnits="userSpaceOnUse">
<stop stop-color="#C98348"/>
<stop offset="1" stop-color="#DD9127"/>
</linearGradient>
<linearGradient id="paint68_linear_1_2020" x1="442.641" y1="23.4319" x2="446.268" y2="16.0306" gradientUnits="userSpaceOnUse">
<stop stop-color="#C98348"/>
<stop offset="1" stop-color="#DD9127"/>
</linearGradient>
<linearGradient id="paint69_linear_1_2020" x1="438.863" y1="21.5794" x2="442.486" y2="14.1782" gradientUnits="userSpaceOnUse">
<stop stop-color="#C98348"/>
<stop offset="1" stop-color="#DD9127"/>
</linearGradient>
<linearGradient id="paint70_linear_1_2020" x1="434.334" y1="19.3647" x2="437.96" y2="11.9634" gradientUnits="userSpaceOnUse">
<stop stop-color="#C98348"/>
<stop offset="1" stop-color="#DD9127"/>
</linearGradient>
<linearGradient id="paint71_linear_1_2020" x1="432.63" y1="18.5281" x2="436.253" y2="11.1268" gradientUnits="userSpaceOnUse">
<stop stop-color="#C98348"/>
<stop offset="1" stop-color="#DD9127"/>
</linearGradient>
<linearGradient id="paint72_linear_1_2020" x1="424.778" y1="14.6854" x2="428.404" y2="7.28408" gradientUnits="userSpaceOnUse">
<stop stop-color="#C98348"/>
<stop offset="1" stop-color="#DD9127"/>
</linearGradient>
<linearGradient id="paint73_linear_1_2020" x1="432.185" y1="18.3124" x2="435.808" y2="10.9111" gradientUnits="userSpaceOnUse">
<stop stop-color="#C98348"/>
<stop offset="1" stop-color="#DD9127"/>
</linearGradient>
<linearGradient id="paint74_linear_1_2020" x1="437.611" y1="20.9686" x2="441.234" y2="13.5639" gradientUnits="userSpaceOnUse">
<stop stop-color="#C98348"/>
<stop offset="1" stop-color="#DD9127"/>
</linearGradient>
<linearGradient id="paint75_linear_1_2020" x1="428.316" y1="16.4186" x2="431.939" y2="9.01381" gradientUnits="userSpaceOnUse">
<stop stop-color="#C98348"/>
<stop offset="1" stop-color="#DD9127"/>
</linearGradient>
<linearGradient id="paint76_linear_1_2020" x1="334.505" y1="155.539" x2="348.559" y2="128.608" gradientUnits="userSpaceOnUse">
<stop stop-color="#51823B"/>
<stop offset="1" stop-color="#AAC76F"/>
</linearGradient>
<linearGradient id="paint77_linear_1_2020" x1="428.457" y1="10.1319" x2="424.51" y2="-0.363178" gradientUnits="userSpaceOnUse">
<stop stop-color="#51823B"/>
<stop offset="1" stop-color="#AAC76F"/>
</linearGradient>
<linearGradient id="paint78_linear_1_2020" x1="276.31" y1="222.637" x2="273.164" y2="247.37" gradientUnits="userSpaceOnUse">
<stop stop-color="#F3CE63"/>
<stop offset="1" stop-color="#D2A651"/>
</linearGradient>
<linearGradient id="paint79_linear_1_2020" x1="256.851" y1="362.549" x2="237.505" y2="480.563" gradientUnits="userSpaceOnUse">
<stop stop-color="white"/>
<stop offset="1" stop-color="#DDF1F3"/>
</linearGradient>
<linearGradient id="paint80_linear_1_2020" x1="336.812" y1="323.731" x2="165.962" y2="373.878" gradientUnits="userSpaceOnUse">
<stop stop-color="#F3CE63"/>
<stop offset="1" stop-color="#D2A651"/>
</linearGradient>
<linearGradient id="paint81_linear_1_2020" x1="330.643" y1="416.475" x2="447.648" y2="517.002" gradientUnits="userSpaceOnUse">
<stop stop-color="white"/>
<stop offset="1" stop-color="#DDF1F3"/>
</linearGradient>
<linearGradient id="paint82_linear_1_2020" x1="151.114" y1="69.3039" x2="170.111" y2="69.3039" gradientUnits="userSpaceOnUse">
<stop stop-color="white"/>
<stop offset="1" stop-color="#DDF1F3"/>
</linearGradient>
<linearGradient id="paint83_linear_1_2020" x1="132.689" y1="81.909" x2="171.155" y2="62.2593" gradientUnits="userSpaceOnUse">
<stop stop-color="#DBE8C4"/>
<stop offset="1" stop-color="#AAC76F"/>
</linearGradient>
<linearGradient id="paint84_linear_1_2020" x1="127.559" y1="71.8638" x2="166.026" y2="52.2141" gradientUnits="userSpaceOnUse">
<stop stop-color="#DBE8C4"/>
<stop offset="1" stop-color="#AAC76F"/>
</linearGradient>
<linearGradient id="paint85_linear_1_2020" x1="158.003" y1="50.697" x2="170.548" y2="77.127" gradientUnits="userSpaceOnUse">
<stop stop-color="#F3CE63"/>
<stop offset="1" stop-color="#D2A651"/>
</linearGradient>
<linearGradient id="paint86_linear_1_2020" x1="165.171" y1="58.4518" x2="172.816" y2="80.0735" gradientUnits="userSpaceOnUse">
<stop stop-color="#E8E8EB"/>
<stop offset="1" stop-color="#D3D3D3"/>
</linearGradient>
<linearGradient id="paint87_linear_1_2020" x1="81.5916" y1="83.8338" x2="84.5514" y2="73.5891" gradientUnits="userSpaceOnUse">
<stop stop-color="white"/>
<stop offset="1" stop-color="#DDF1F3"/>
</linearGradient>
<linearGradient id="paint88_linear_1_2020" x1="72.1698" y1="91.7794" x2="85.1202" y2="68.6936" gradientUnits="userSpaceOnUse">
<stop stop-color="#DBE8C4"/>
<stop offset="1" stop-color="#AAC76F"/>
</linearGradient>
<linearGradient id="paint89_linear_1_2020" x1="80.7769" y1="96.612" x2="93.7274" y2="73.5228" gradientUnits="userSpaceOnUse">
<stop stop-color="#DBE8C4"/>
<stop offset="1" stop-color="#AAC76F"/>
</linearGradient>
<linearGradient id="paint90_linear_1_2020" x1="74.7868" y1="95.3988" x2="77.4714" y2="90.8903" gradientUnits="userSpaceOnUse">
<stop stop-color="white"/>
<stop offset="1" stop-color="#DDF1F3"/>
</linearGradient>
<linearGradient id="paint91_linear_1_2020" x1="52.0216" y1="85.8654" x2="102.684" y2="67.6056" gradientUnits="userSpaceOnUse">
<stop stop-color="#F3CE63"/>
<stop offset="1" stop-color="#D2A651"/>
</linearGradient>
<linearGradient id="paint92_linear_1_2020" x1="80.2801" y1="72.7951" x2="83.8678" y2="62.5504" gradientUnits="userSpaceOnUse">
<stop stop-color="#E8E8EB"/>
<stop offset="1" stop-color="#D3D3D3"/>
</linearGradient>
<linearGradient id="paint93_linear_1_2020" x1="200.422" y1="236.718" x2="256.673" y2="297.93" gradientUnits="userSpaceOnUse">
<stop stop-color="white"/>
<stop offset="1" stop-color="#DDF1F3"/>
</linearGradient>
</defs>
</svg>
