<svg width="502" height="354" viewBox="0 0 502 354" fill="none" xmlns="http://www.w3.org/2000/svg">
<path d="M494.734 256.743C486.398 281.579 466.254 301.193 439.111 316.088C359.232 359.938 218.781 362.926 140.662 337.812C118.197 330.59 96.1025 318.282 76.3328 302.181C23.3986 259.037 -12.8739 188.587 5.00127 115.245C42.0605 -36.8024 267.468 -29.5846 351.732 87.9608C414.593 175.615 530.996 148.691 494.734 256.743Z" fill="#F4EAC8"/>
<path d="M472.301 217.807H472.258C472.119 217.797 471.989 217.731 471.897 217.624C471.806 217.518 471.761 217.379 471.772 217.239C471.772 217.098 472.802 203.153 467.27 196.994C466.492 196.103 465.534 195.387 464.46 194.891C463.386 194.396 462.219 194.132 461.037 194.118C459.857 194.073 458.682 194.297 457.602 194.774C456.521 195.25 455.564 195.967 454.803 196.87C450.432 201.763 449.832 211.92 450.319 215.327C450.339 215.468 450.302 215.61 450.217 215.723C450.131 215.836 450.004 215.911 449.864 215.931C449.724 215.95 449.581 215.913 449.468 215.828C449.355 215.743 449.28 215.616 449.261 215.476C448.679 211.398 449.494 201.216 454.006 196.165C454.867 195.143 455.951 194.333 457.174 193.795C458.397 193.256 459.726 193.005 461.061 193.06C462.388 193.076 463.696 193.371 464.901 193.926C466.106 194.482 467.18 195.286 468.053 196.285C473.888 202.783 472.869 216.746 472.823 217.317C472.813 217.449 472.754 217.573 472.657 217.664C472.561 217.755 472.433 217.806 472.301 217.807Z" fill="#654B1E"/>
<path d="M491.58 308.841L487.184 211.64L431.71 211.637L427.314 308.844H463.509V308.841H491.58Z" fill="url(#paint0_linear_1_2163)"/>
<path d="M424.527 219.962C424.527 219.962 431.336 219.394 431.71 211.637C435.689 225.293 434.433 240.766 431.71 256.739H426.379L424.527 219.962Z" fill="url(#paint1_linear_1_2163)"/>
<path d="M465.38 224.557H465.331C465.191 224.543 465.063 224.475 464.974 224.368C464.885 224.26 464.842 224.121 464.854 223.982C464.854 223.827 466.241 208.527 461.041 203.066C460.45 202.417 459.72 201.911 458.906 201.585C458.091 201.259 457.213 201.123 456.338 201.185C455.033 201.218 453.751 201.531 452.578 202.105C451.406 202.678 450.371 203.498 449.544 204.508C445.191 209.684 445.279 219.173 445.663 222.091C445.672 222.16 445.667 222.231 445.649 222.299C445.63 222.366 445.599 222.429 445.556 222.485C445.513 222.54 445.459 222.586 445.399 222.621C445.338 222.656 445.271 222.678 445.201 222.687C445.132 222.696 445.061 222.691 444.994 222.672C444.926 222.654 444.863 222.622 444.807 222.58C444.752 222.537 444.706 222.483 444.671 222.422C444.636 222.362 444.614 222.294 444.605 222.225C444.217 219.188 444.139 209.289 448.736 203.824C449.656 202.701 450.807 201.789 452.111 201.151C453.415 200.513 454.841 200.164 456.292 200.127C457.318 200.062 458.345 200.227 459.299 200.609C460.252 200.991 461.109 201.581 461.806 202.335C467.338 208.149 465.966 223.431 465.906 224.081C465.893 224.211 465.832 224.332 465.734 224.42C465.637 224.508 465.511 224.557 465.38 224.557Z" fill="#654B1E"/>
<path d="M491.58 308.841H472.865C473.218 288.98 474.276 225.586 474.343 225.427C474.41 225.268 478.383 219.963 478.383 219.963C474.276 216.368 477.723 211.849 487.202 211.641L491.58 308.841Z" fill="url(#paint2_linear_1_2163)"/>
<path d="M478.382 219.963H424.527L420.259 317.167H482.647L478.382 219.963Z" fill="url(#paint3_linear_1_2163)"/>
<path d="M440.103 238.141C445.814 239.164 445.814 243.69 447.278 255.663C448.742 267.636 455.392 327.249 455.392 327.249H424.521L440.103 238.141Z" fill="url(#paint4_linear_1_2163)"/>
<path d="M440.103 238.141C440.103 238.141 439.669 257.169 439.242 277.225C439.161 281.007 439.083 284.827 439.006 288.563C438.632 306.456 438.343 322.401 438.441 323.135C438.678 324.797 373.403 325.986 373.403 325.986L381.694 288.591L384.205 277.253L392.866 238.141H440.103Z" fill="url(#paint5_linear_1_2163)"/>
<path d="M298.078 306.951C298.078 306.951 322.843 307.836 322.649 307.452C322.455 307.067 307.126 245.398 307.126 245.398L286.796 253.011L298.078 306.951Z" fill="#F9CBA2"/>
<path d="M291.898 271.909C299.899 261.717 308.975 255.565 312.436 254.027C315.897 252.489 307.695 244.336 307.695 244.336L285.29 253.49L291.898 271.909Z" fill="#E5AD83"/>
<path d="M135.339 272.89C145.979 271.754 157.564 268.808 157.564 268.808L156.393 256.722L139.763 252.75L135.339 272.89Z" fill="url(#paint6_linear_1_2163)"/>
<path d="M182.748 153.553L244.89 156.255L277.306 316.261C277.306 316.261 185.433 327.116 185.701 324.604C185.969 322.092 182.748 153.553 182.748 153.553Z" fill="url(#paint7_linear_1_2163)"/>
<path d="M294.025 257.679L307.731 309.449L262.201 308.232C262.201 308.232 246.52 231.326 242.22 212.911C237.919 194.496 235.249 183.222 235.002 169.943C235.002 169.943 238.632 153.472 239.941 148.695C255.308 149.02 280.764 150.304 295.962 152.026C299.578 152.435 302.615 152.869 304.781 153.324C306.453 155.634 319.598 250.066 319.598 250.066L294.025 257.679Z" fill="url(#paint8_linear_1_2163)"/>
<path d="M319.608 250.062L294.025 257.675C293.538 256.599 273.916 185.355 285.29 164.016C287.953 159.021 291.728 155.098 295.954 152.021C299.57 152.431 302.608 152.865 304.774 153.32C306.46 155.63 319.608 250.062 319.608 250.062Z" fill="url(#paint9_linear_1_2163)"/>
<path d="M307.01 196.45H280.802C280.102 196.447 279.41 196.289 278.779 195.985C278.148 195.682 277.592 195.241 277.152 194.696C276.713 194.15 276.401 193.513 276.239 192.831C276.077 192.15 276.069 191.441 276.216 190.756L289.269 129.972C289.494 128.922 290.072 127.981 290.906 127.304C291.741 126.628 292.781 126.257 293.855 126.254H320.063C320.763 126.256 321.455 126.415 322.086 126.718C322.718 127.022 323.273 127.462 323.713 128.008C324.152 128.554 324.464 129.19 324.626 129.872C324.788 130.554 324.796 131.263 324.649 131.948L311.596 192.731C311.371 193.781 310.793 194.723 309.959 195.399C309.125 196.075 308.084 196.446 307.01 196.45Z" fill="url(#paint10_linear_1_2163)"/>
<path d="M306.228 143.41C307.57 143.41 308.658 142.322 308.658 140.979C308.658 139.637 307.57 138.549 306.228 138.549C304.885 138.549 303.797 139.637 303.797 140.979C303.797 142.322 304.885 143.41 306.228 143.41Z" fill="#654B1E"/>
<path d="M318.783 306.76L316.151 306.95C316.151 306.95 311.304 279.462 309.3 270.543C307.296 261.625 303.243 237.061 300.481 226.905C297.658 216.509 299.069 220.371 296.431 215.062C294.434 211.033 293.87 207.933 294.536 204.292C295.203 200.651 300.276 196.446 300.276 196.446C300.276 196.446 297.154 192.287 296.536 191.976C295.919 191.666 288.222 189.44 285.664 188.703C282.034 187.644 282.358 182.783 284.768 182.077C280.535 181.104 279.691 173.36 284.33 172.905C278.626 172.2 279.815 165.571 283.498 165.254C286.673 164.982 298.057 163.687 300.862 164.901C302.855 165.762 313.378 171.805 313.378 171.805L314.676 165.303C314.676 165.303 308.594 162.043 301.849 158.103C295.545 154.416 299.521 146.973 305.465 150.176C308.884 152.021 318.634 156.942 321.563 158.47C324.491 159.997 326.205 164.072 325.761 169.935C325.316 175.798 321.563 205.724 321.563 205.724L326.533 220.685L343.057 270.388C348.744 287.526 336.774 305.444 318.783 306.76Z" fill="#F9CBA2"/>
<path d="M279.293 70.5772C280.704 72.574 278.556 77.5622 262.896 82.4976C262.896 82.4976 248.735 65.335 248.951 65.0669C249.166 64.7988 275.578 67.9349 279.293 70.5772Z" fill="url(#paint11_linear_1_2163)"/>
<path d="M166.03 84.8251C164.142 90.2509 173.357 92.0818 180.388 91.355C187.419 90.6283 189.959 77.6708 189.959 77.6708L186.717 73.4375C186.717 73.4375 173.438 77.6285 166.03 84.8251Z" fill="url(#paint12_linear_1_2163)"/>
<path d="M248.164 104.989C251.236 109.974 259.908 109.653 262.014 109.166C262.014 109.166 258.934 108.154 259.583 103.575C260.013 100.551 262.458 98.4804 265.683 97.7149C274.675 95.5735 262.617 67.4431 251.804 63.5555C244.103 60.7968 192.488 68.8224 184.484 73.5214C184.484 73.5214 181.81 74.414 181.083 93.6297C181.083 93.6297 194.136 106.266 210.896 103.836C227.657 101.405 248.164 104.989 248.164 104.989Z" fill="url(#paint13_linear_1_2163)"/>
<path d="M248.164 104.99C242.1 132.718 235.707 135.869 235.707 135.869C235.707 135.869 235.856 157.741 233.852 158.739C231.848 159.738 220.541 163.142 205.425 162.041C190.308 160.941 186.407 154.633 185.606 150.23C184.805 145.828 189.208 134.003 189.709 133.614C189.91 128.411 188.153 106.391 188.153 106.391C172.112 107.625 174.179 91.9268 177.443 88.7236C180.706 85.5203 185.296 87.3759 193.088 95.959C193.088 95.959 192.944 80.9589 200.941 75.4274C200.941 75.4274 203.167 84.8677 222.461 84.148C222.461 84.148 213.38 80.719 211.736 71.2188C211.736 71.2188 214.819 77.156 224.662 80.1617C234.504 83.1673 246.975 81.8091 246.626 90.8261C246.351 98.1921 246.816 102.348 248.164 104.99Z" fill="#F9CBA2"/>
<path d="M302.005 116.935C301.702 116.936 301.402 116.876 301.123 116.758C300.693 116.58 300.338 116.259 300.12 115.848C299.901 115.437 299.831 114.964 299.923 114.508L309.096 53.5724C309.932 48.0127 315.139 43.4865 320.702 43.4865H462.003C463.278 43.4582 464.543 43.7091 465.71 44.2216C466.877 44.7342 467.918 45.4959 468.759 46.4534C470.431 48.3972 471.126 50.9795 470.713 53.7277L465.005 91.7112C464.169 97.271 458.962 101.797 453.399 101.797H314.87L304.09 115.862C303.847 116.188 303.533 116.455 303.172 116.641C302.81 116.827 302.411 116.927 302.005 116.935Z" fill="url(#paint14_linear_1_2163)"/>
<path d="M279.293 70.5753C279.293 70.5753 253.254 64.2253 222.496 67.8907C191.737 71.556 178.61 76.7736 166.009 84.824C168.404 80.7635 182.741 71.2173 182.741 71.2173C183.559 67.9788 184.392 65.079 185.239 62.4861C191.155 44.3851 197.79 41.0055 204.85 40.0565C212.921 38.977 215.369 44.0394 223.321 44.3498C231.273 44.6603 232.07 39.8484 235.785 38.9206C239.499 37.9928 246.657 37.2237 251.406 43.5243C253.787 46.6782 255.258 50.9997 256.133 54.5275C256.648 56.5815 257.035 58.6657 257.29 60.7681C273.923 66.342 279.293 70.5753 279.293 70.5753Z" fill="url(#paint15_linear_1_2163)"/>
<path d="M257.297 60.7681C228.235 59.7097 203.227 63.0152 182.748 71.2173C183.566 67.9788 184.399 65.079 185.246 62.4861C203.202 56.3054 225.11 52.5836 256.154 54.5274C256.665 56.5817 257.047 58.666 257.297 60.7681Z" fill="url(#paint16_linear_1_2163)"/>
<path d="M220.468 99.2014C220.563 97.6301 219.786 96.3043 218.732 96.2402C217.678 96.1761 216.746 97.3979 216.651 98.9693C216.555 100.541 217.332 101.866 218.386 101.931C219.44 101.995 220.372 100.773 220.468 99.2014Z" fill="#654B1E"/>
<path d="M241.882 101.779C241.968 100.357 241.264 99.1577 240.31 99.0996C239.355 99.0416 238.511 100.147 238.424 101.569C238.338 102.99 239.042 104.19 239.997 104.248C240.951 104.306 241.796 103.2 241.882 101.779Z" fill="#654B1E"/>
<path d="M227.06 92.2105C226.936 92.2082 226.814 92.1729 226.707 92.1082C223.811 90.3655 217.62 87.6491 208.716 89.0285C208.623 89.0426 208.529 89.0384 208.438 89.016C208.347 88.9936 208.261 88.9534 208.185 88.8979C208.11 88.8424 208.046 88.7725 207.998 88.6923C207.949 88.6121 207.917 88.5232 207.903 88.4305C207.889 88.3379 207.893 88.2433 207.915 88.1523C207.938 88.0613 207.978 87.9756 208.033 87.9001C208.089 87.8246 208.159 87.7608 208.239 87.7123C208.319 87.6637 208.408 87.6315 208.501 87.6174C217.849 86.171 224.376 89.0285 227.445 90.8841C227.576 90.9633 227.677 91.083 227.734 91.2249C227.791 91.3668 227.8 91.5234 227.76 91.6711C227.72 91.8187 227.634 91.9495 227.513 92.0436C227.393 92.1377 227.245 92.1901 227.092 92.1929L227.06 92.2105Z" fill="#B68B2D"/>
<path d="M239.055 94.019C238.907 94.019 238.763 93.9724 238.643 93.8858C238.522 93.7992 238.433 93.677 238.386 93.5366C238.339 93.3961 238.338 93.2444 238.382 93.1031C238.426 92.9617 238.513 92.8379 238.632 92.749C240.992 90.9851 245.042 91.1368 246.675 91.2885C246.862 91.3058 247.035 91.3967 247.155 91.5413C247.275 91.6859 247.333 91.8722 247.315 92.0593C247.298 92.2464 247.207 92.419 247.063 92.5391C246.918 92.6592 246.732 92.7169 246.545 92.6996C243.486 92.4174 240.844 92.8584 239.489 93.8814C239.364 93.974 239.211 94.0223 239.055 94.019Z" fill="#B68B2D"/>
<path d="M189.945 100.288C189.846 100.288 189.749 100.26 189.665 100.208C189.58 100.155 189.513 100.08 189.469 99.9912C187.603 96.1601 182.025 93.4578 179.094 93.4578H179.006C178.936 93.4592 178.867 93.4469 178.802 93.4216C178.738 93.3963 178.679 93.3585 178.628 93.3103C178.578 93.2621 178.538 93.2046 178.51 93.1409C178.482 93.0773 178.467 93.0087 178.466 92.9392C178.465 92.8697 178.477 92.8007 178.502 92.7359C178.527 92.6712 178.565 92.6121 178.613 92.5619C178.662 92.5118 178.719 92.4717 178.783 92.4438C178.846 92.4159 178.915 92.4009 178.984 92.3995C182.544 92.3325 188.453 95.4933 190.418 99.5291C190.458 99.6099 190.476 99.6994 190.471 99.7892C190.467 99.879 190.439 99.9661 190.392 100.042C190.344 100.119 190.278 100.182 190.199 100.225C190.12 100.269 190.032 100.291 189.942 100.291L189.945 100.288Z" fill="#C98348"/>
<path d="M186.534 103.328C183.5 103.328 181.817 101.5 181.482 99.5884C181.147 97.6764 182.121 95.2563 185.042 94.4449C185.175 94.4121 185.316 94.4327 185.435 94.5023C185.554 94.5719 185.641 94.685 185.678 94.8177C185.714 94.9503 185.698 95.0921 185.632 95.2128C185.566 95.3335 185.455 95.4238 185.324 95.4644C183.038 96.0994 182.269 97.955 182.523 99.4085C182.777 100.862 184.107 102.467 187.042 102.252C187.111 102.247 187.181 102.255 187.247 102.277C187.313 102.299 187.375 102.334 187.427 102.379C187.48 102.425 187.523 102.48 187.555 102.543C187.586 102.605 187.605 102.673 187.61 102.742C187.615 102.812 187.606 102.882 187.584 102.948C187.562 103.014 187.528 103.075 187.482 103.128C187.437 103.181 187.381 103.224 187.319 103.255C187.257 103.286 187.189 103.305 187.119 103.31C186.92 103.322 186.724 103.328 186.534 103.328Z" fill="#C98348"/>
<path d="M230.462 115.763C227.96 115.763 226.147 114.556 224.507 111.847C224.446 111.728 224.432 111.59 224.468 111.461C224.505 111.332 224.589 111.222 224.703 111.152C224.818 111.083 224.955 111.06 225.086 111.087C225.217 111.115 225.333 111.191 225.41 111.3C227.033 113.978 228.662 114.92 231.22 114.666C233.428 114.443 234.716 113.576 233.404 99.1434C233.397 99.0739 233.405 99.0039 233.426 98.9373C233.447 98.8707 233.48 98.8088 233.525 98.7553C233.57 98.7017 233.625 98.6575 233.686 98.6251C233.748 98.5927 233.816 98.5728 233.885 98.5666C233.955 98.5603 234.025 98.5678 234.091 98.5886C234.158 98.6095 234.22 98.6432 234.273 98.6879C234.327 98.7326 234.371 98.7875 234.404 98.8493C234.436 98.9111 234.456 98.9786 234.462 99.0481C235.732 113.036 234.843 115.382 231.333 115.734C231.03 115.751 230.739 115.76 230.462 115.763Z" fill="#C98348"/>
<path d="M224.432 122.622C221.783 122.622 216.435 121.108 215.154 115.386C215.123 115.207 215.161 115.023 215.262 114.872C215.363 114.721 215.518 114.615 215.695 114.576C215.873 114.536 216.058 114.566 216.214 114.66C216.369 114.754 216.482 114.904 216.53 115.079C217.888 121.14 224.369 121.211 224.432 121.211C224.619 121.211 224.799 121.285 224.931 121.417C225.063 121.55 225.138 121.729 225.138 121.916C225.138 122.103 225.063 122.283 224.931 122.415C224.799 122.547 224.619 122.622 224.432 122.622Z" fill="#C98348"/>
<path d="M235.707 135.869C231.763 138.213 227.242 139.408 222.654 139.319C206.779 139.058 197.501 127.638 192.965 110.85C192.965 110.85 192.813 123.126 197.064 132.838C201.315 142.55 210.822 154.689 232.063 146.244L235.707 135.869Z" fill="#E5AD83"/>
<path d="M258.955 169.301C251.473 161.515 241.243 161.014 235.005 169.943L232.236 159.36L229.086 147.33L226.909 139.018C230.022 138.562 233.012 137.491 235.707 135.868C235.94 135.734 236.156 135.572 236.35 135.385C237.782 136.169 239.124 137.107 240.354 138.182C248.263 145.026 255.96 156.467 258.955 169.301Z" fill="url(#paint17_linear_1_2163)"/>
<path d="M295.792 266.981C295.673 266.981 295.557 266.941 295.464 266.866C295.37 266.792 295.304 266.688 295.277 266.572C294.776 264.427 283.043 213.93 283.043 205.728C283.043 205.588 283.099 205.453 283.198 205.354C283.297 205.255 283.432 205.199 283.572 205.199C283.712 205.199 283.847 205.255 283.946 205.354C284.046 205.453 284.101 205.588 284.101 205.728C284.101 213.811 296.184 265.81 296.307 266.332C296.325 266.41 296.326 266.49 296.308 266.568C296.291 266.646 296.256 266.718 296.207 266.781C296.157 266.843 296.094 266.894 296.022 266.928C295.951 266.963 295.872 266.981 295.792 266.981Z" fill="#B68B2D"/>
<path d="M317.333 167.134C317.252 167.134 317.172 167.114 317.1 167.078L314.44 165.766C314.314 165.703 314.218 165.594 314.173 165.461C314.128 165.328 314.138 165.182 314.2 165.056C314.263 164.931 314.372 164.835 314.505 164.79C314.638 164.745 314.784 164.754 314.909 164.817L317.569 166.129C317.676 166.182 317.761 166.27 317.811 166.378C317.861 166.486 317.874 166.607 317.847 166.723C317.819 166.839 317.754 166.942 317.661 167.016C317.567 167.09 317.452 167.13 317.333 167.131V167.134Z" fill="#C98348"/>
<path d="M316.839 175.185C316.747 175.185 316.657 175.162 316.578 175.116C316.498 175.071 316.431 175.006 316.384 174.927C315.459 173.853 314.352 172.951 313.114 172.26C313 172.188 312.918 172.074 312.885 171.943C312.852 171.811 312.871 171.673 312.937 171.555C313.004 171.437 313.113 171.349 313.242 171.309C313.371 171.269 313.511 171.28 313.632 171.34C315.036 172.111 316.278 173.144 317.291 174.384C317.339 174.465 317.365 174.556 317.366 174.65C317.367 174.744 317.343 174.836 317.297 174.917C317.25 174.999 317.183 175.066 317.102 175.113C317.021 175.16 316.929 175.185 316.836 175.185H316.839Z" fill="#C98348"/>
<path d="M310.99 182.262C310.885 182.262 310.783 182.231 310.697 182.174C310.591 182.103 300.191 175.206 298.145 174.208C296.48 173.397 291.911 173.407 287.075 173.418H284.323C284.183 173.418 284.048 173.362 283.949 173.263C283.85 173.164 283.794 173.029 283.794 172.889C283.794 172.748 283.85 172.614 283.949 172.514C284.048 172.415 284.183 172.359 284.323 172.359C285.24 172.359 286.161 172.359 287.068 172.359C292.243 172.359 296.716 172.335 298.604 173.256C300.72 174.286 310.848 181.017 311.279 181.288C311.374 181.351 311.446 181.443 311.484 181.55C311.523 181.657 311.526 181.773 311.493 181.882C311.46 181.991 311.393 182.086 311.302 182.154C311.21 182.222 311.1 182.258 310.986 182.258L310.99 182.262Z" fill="#C98348"/>
<path d="M308.584 189.561C308.487 189.561 308.392 189.534 308.309 189.483C305.208 187.606 296.928 182.643 295.873 182.23C294.709 181.775 288.13 181.814 284.891 182.583C284.824 182.599 284.754 182.602 284.685 182.591C284.616 182.58 284.55 182.556 284.491 182.519C284.432 182.483 284.38 182.435 284.339 182.379C284.298 182.323 284.269 182.259 284.253 182.191C284.237 182.124 284.234 182.053 284.245 181.985C284.256 181.916 284.28 181.85 284.316 181.791C284.353 181.732 284.4 181.68 284.457 181.639C284.513 181.598 284.577 181.569 284.644 181.553C287.964 180.752 294.801 180.66 296.258 181.228C297.616 181.757 308.4 188.284 308.859 188.562C308.957 188.622 309.034 188.713 309.076 188.82C309.118 188.928 309.124 189.046 309.093 189.157C309.062 189.268 308.995 189.366 308.903 189.435C308.811 189.505 308.699 189.543 308.584 189.543V189.561Z" fill="#C98348"/>
<path d="M304.392 201.082C304.263 201.084 304.137 201.037 304.04 200.952C302.574 199.647 301.183 198.261 299.873 196.8C299.827 196.748 299.791 196.687 299.769 196.621C299.746 196.555 299.736 196.485 299.74 196.416C299.744 196.346 299.762 196.278 299.792 196.215C299.823 196.153 299.865 196.096 299.918 196.05C299.97 196.004 300.03 195.968 300.096 195.945C300.162 195.922 300.232 195.913 300.301 195.917C300.371 195.921 300.439 195.939 300.502 195.969C300.565 196 300.621 196.042 300.667 196.094C301.948 197.52 303.309 198.872 304.742 200.144C304.823 200.215 304.881 200.31 304.907 200.414C304.933 200.519 304.927 200.63 304.888 200.731C304.85 200.832 304.781 200.919 304.692 200.98C304.603 201.041 304.497 201.073 304.389 201.072L304.392 201.082Z" fill="#C98348"/>
<path d="M326.527 220.69L316.854 212.738C316.854 212.738 319.139 211.024 321.552 205.729L326.527 220.69Z" fill="#E5AD83"/>
<path d="M92.6313 132.157C92.5914 132.161 92.5512 132.161 92.5113 132.157C92.1585 132.076 83.7907 130.107 79.2469 124.851C74.8971 119.817 75.1935 114.793 77.737 112.43C79.5573 110.743 82.7535 110.412 86.0237 113.227C86.8775 109.653 89.4245 108.56 91.6682 108.771C95.6334 109.145 99.7044 113.534 99.3658 119.972C99.0271 126.41 93.2451 131.804 93.0158 132.03C92.9095 132.121 92.7712 132.167 92.6313 132.157Z" fill="url(#paint18_linear_1_2163)"/>
<path d="M115.759 99.32C115.66 99.3201 115.562 99.2919 115.477 99.2388C115.283 99.1153 110.722 96.1943 109.304 91.6188C107.857 86.9551 109.656 83.1275 112.126 82.2561C113.452 81.7905 115.192 82.1432 116.398 84.3305C117.834 82.1256 119.644 81.8857 120.959 82.4678C123.334 83.5261 124.688 87.3396 122.847 91.894C121.005 96.4484 116.222 99.14 116.017 99.2494C115.939 99.2944 115.85 99.3187 115.759 99.32Z" fill="url(#paint19_linear_1_2163)"/>
<path d="M98.8187 212.063C97.5416 208.765 98.8187 204.302 98.2966 191.867C97.8873 182.119 90.4543 176.246 86.4009 172.326C82.3475 168.407 75.045 159.08 72.4027 155.848C69.0795 151.788 62.3521 154.878 64.8357 160.529C49.9379 182.458 58.9478 204.528 98.8187 212.063Z" fill="#F9CBA2"/>
<path d="M35.88 170.098C41.9054 166.707 82.2067 169.681 87.8229 171.396C93.4391 173.11 94.06 176.31 105.836 176.931C117.611 177.552 119.499 168.655 117.333 166.348C112.577 161.282 101.56 165.776 90.3276 167.716C89.3469 167.886 74.8725 163.987 39.8487 165.215C35.3614 165.374 31.1457 167.716 30.479 169.117C29.1525 171.893 31.7842 172.401 35.88 170.098Z" fill="url(#paint20_linear_1_2163)"/>
<path d="M82.708 212.614C81.3671 216.297 78.6546 219.319 75.1374 221.049C73.0948 214.875 71.8848 211.125 71.8848 211.125C76.5908 212.564 82.708 212.614 82.708 212.614Z" fill="#E5AD83"/>
<path d="M116.221 170.511C115.209 172.67 112.062 174.572 105.927 174.328C103.757 174.265 101.594 174.05 99.4537 173.686C95.171 172.896 93.1496 171.527 93.527 169.947C93.7458 169.044 94.5007 168.483 95.8201 168.024C97.2592 167.58 98.7265 167.232 100.212 166.983C107.557 165.572 112.686 165.135 115.057 166.31C115.383 166.452 115.675 166.662 115.914 166.926C116.152 167.19 116.332 167.502 116.44 167.841C116.701 168.727 116.623 169.679 116.221 170.511Z" fill="url(#paint21_linear_1_2163)"/>
<path d="M116.222 170.509C115.209 172.668 112.062 174.57 105.928 174.326C103.758 174.263 101.594 174.048 99.4542 173.684C97.5597 172.954 96.1804 171.921 95.9511 170.509C95.8267 169.693 95.7842 168.865 95.8241 168.04V167.782C95.9828 165.26 96.8824 162.702 98.805 162.089C101.454 161.246 101.412 163.627 104.259 162.925C107.106 162.223 106.481 160.307 110.842 161.376C112.824 161.859 114.165 163.997 115.05 166.315C115.188 166.668 115.311 167.045 115.428 167.412C115.749 168.429 116.014 169.463 116.222 170.509Z" fill="url(#paint22_linear_1_2163)"/>
<path d="M115.435 167.406C112.944 167.61 112.891 162.576 110.221 162.149C106.898 161.613 106.513 169.205 103.003 169.988C99.4929 170.771 101.017 166.542 98.3428 168.485C96.8682 169.544 96.0921 169.24 95.8311 167.755C95.9898 165.233 96.8894 162.675 98.812 162.061C101.461 161.218 101.419 163.599 104.266 162.897C107.113 162.195 106.488 160.28 110.849 161.349C113.142 161.913 114.574 164.679 115.435 167.406Z" fill="url(#paint23_linear_1_2163)"/>
<path d="M384.474 252.601H436.501L440.103 238.141H388.866L384.474 252.601Z" fill="url(#paint24_linear_1_2163)"/>
<g opacity="0.5">
<path d="M410.44 247.271H414.589C414.589 247.271 412.656 251.639 412.656 259.619H408.423C408.423 259.619 407.657 252.076 410.44 247.271Z" fill="url(#paint25_linear_1_2163)"/>
</g>
<path d="M439.242 277.223C439.161 281.004 439.083 284.825 439.006 288.561H381.693L384.205 277.223H439.242Z" fill="url(#paint26_linear_1_2163)"/>
<path d="M408.331 270.436C405.867 270.436 403.458 271.166 401.409 272.535C399.36 273.905 397.763 275.851 396.82 278.127C395.877 280.404 395.63 282.909 396.111 285.326C396.591 287.743 397.778 289.964 399.521 291.706C401.263 293.449 403.483 294.636 405.9 295.116C408.317 295.597 410.823 295.35 413.099 294.407C415.376 293.464 417.322 291.867 418.691 289.818C420.061 287.769 420.791 285.36 420.791 282.896C420.788 279.592 419.474 276.425 417.138 274.089C414.802 271.753 411.635 270.439 408.331 270.436Z" fill="url(#paint27_linear_1_2163)"/>
<path d="M333.154 62.6797L335.409 69.2343L342.485 70.2856L336.481 75.3902L336.636 82.5975L330.674 79.1967L323.689 82.5975L326.011 75.3902L321.541 70.2856L328.935 69.2343L333.154 62.6797Z" fill="url(#paint28_linear_1_2163)"/>
<path d="M359.775 62.6797L362.026 69.2343L369.106 70.2856L363.102 75.3902L363.254 82.5975L357.295 79.1967L350.31 82.5975L352.628 75.3902L348.158 70.2856L355.552 69.2343L359.775 62.6797Z" fill="url(#paint29_linear_1_2163)"/>
<path d="M386.396 62.6797L388.647 69.2343L395.724 70.2856L389.723 75.3902L389.875 82.5975L383.913 79.1967L376.931 82.5975L379.249 75.3902L374.779 70.2856L382.173 69.2343L386.396 62.6797Z" fill="url(#paint30_linear_1_2163)"/>
<path d="M413.013 62.6797L415.264 69.2343L422.344 70.2856L416.34 75.3902L416.495 82.5975L410.533 79.1967L403.548 82.5975L405.869 75.3902L401.399 70.2856L408.794 69.2343L413.013 62.6797Z" fill="url(#paint31_linear_1_2163)"/>
<path opacity="0.25" d="M442.064 62.6797L444.315 69.2343L451.395 70.2856L445.391 75.3902L445.546 82.5975L439.584 79.1967L432.599 82.5975L434.917 75.3902L430.447 70.2856L437.841 69.2343L442.064 62.6797Z" fill="url(#paint32_linear_1_2163)"/>
<path d="M439.634 59.1953L441.884 65.7534L448.965 66.8047L442.96 71.9094L443.112 79.1166L437.15 75.7123L430.169 79.1166L432.486 71.9094L428.017 66.8047L435.411 65.7534L439.634 59.1953Z" fill="url(#paint33_linear_1_2163)"/>
<path d="M439.115 316.087C359.236 359.937 218.785 362.925 140.666 337.811C118.201 330.59 96.1066 318.281 76.3369 302.18C185.871 295.245 321.044 300.088 439.115 316.087Z" fill="url(#paint34_linear_1_2163)"/>
<path d="M148.55 246.967C147.665 257.268 146.938 266.691 145.89 274.805C143.844 290.68 140.598 301.528 132.538 304.086C118.913 308.414 104.139 308.171 91.0156 267.418C91.0156 267.418 114.564 240.564 114.877 240.564C114.902 240.564 115.135 240.603 115.548 240.681C120.289 241.542 148.55 246.967 148.55 246.967Z" fill="#F9CBA2"/>
<path d="M148.55 246.968C147.665 257.269 146.938 266.692 145.89 274.805C139.067 265.633 126.314 256.461 113.435 252.256L115.551 240.678C120.289 241.542 148.55 246.968 148.55 246.968Z" fill="#E5AD83"/>
<path d="M212.501 299.384C194.157 299.07 176.049 299.031 158.265 299.218L154.738 263.588L154.522 263.468C152.053 262.085 128.59 249.318 106.129 247.769L101.874 228.119C101.874 228.119 110.062 201.015 113.907 189.963C117.636 179.263 123.291 158.658 141.046 153.038C141.632 152.851 142.232 152.685 142.846 152.53C167.159 146.494 184.248 149.838 184.248 149.838L198.006 173.474C200.74 199.509 209.774 276.379 212.501 299.384Z" fill="url(#paint35_linear_1_2163)"/>
<path d="M154.508 263.481C152.038 262.098 128.575 249.331 106.114 247.782L101.859 228.132C101.859 228.132 110.047 201.028 113.893 189.976C117.621 179.276 123.276 158.671 141.032 153.051C143.611 156.536 145.576 161.281 146.447 167.688C150.133 194.753 153.626 249.161 154.508 263.481Z" fill="url(#paint36_linear_1_2163)"/>
<path d="M189.712 133.616C189.938 142.284 190.065 149.092 190.065 149.092C190.065 149.092 196.895 163.041 197.967 173.49C197.967 173.49 181.627 156.882 163.945 166.191C163.945 166.191 168.023 143.892 175.16 138.611C182.297 133.33 189.712 133.616 189.712 133.616Z" fill="url(#paint37_linear_1_2163)"/>
<path d="M130.452 276.245C108.227 286.828 91.0187 267.425 91.0187 267.425C84.5558 249.31 78.6292 231.632 75.1437 221.06C73.1012 214.886 71.8911 211.136 71.8911 211.136C71.8911 211.136 62.4755 207.061 57.4026 204.722C52.3296 202.384 52.3967 198.916 52.9294 196.45C52.9294 196.45 47.3908 193.712 49.7932 187.842C46.1772 188.287 43.7959 183.609 46.1207 179.862C46.1207 179.862 43.2527 178.783 44.1734 174.447C45.0942 170.111 49.7014 163.903 57.3461 161.821C73.0624 157.538 75.934 165.18 71.81 167.727C77.3662 167.684 81.0774 167.836 81.6631 171.103C82.2487 174.369 78.9996 175.639 78.9996 175.639C84.6793 177.051 83.3564 182.843 80.4919 183.178C83.6034 183.125 84.1184 187.962 82.478 189.123C80.7141 190.368 77.1334 191.465 75.1578 192.174C73.6056 192.735 72.2757 194.626 72.2757 194.626C73.08 194.771 81.4479 195.152 83.2118 195.243C84.9756 195.335 86.2915 195.624 90.7859 199.032C95.2803 202.44 94.5289 208.077 94.5289 208.077C94.5289 208.077 97.9437 210.011 98.808 212.085C111.025 241.263 123.118 261.816 130.452 276.245Z" fill="#F9CBA2"/>
<path d="M71.8139 168.243C71.6983 168.243 71.5857 168.206 71.4932 168.137C71.4008 168.067 71.3336 167.97 71.302 167.858C71.2704 167.747 71.2761 167.629 71.3182 167.521C71.3603 167.413 71.4365 167.322 71.5352 167.262C72.7981 166.482 73.2991 165.145 72.7664 163.942C71.6481 161.367 66.4869 159.864 57.4841 162.32C57.3516 162.349 57.213 162.326 57.097 162.255C56.9809 162.185 56.8963 162.073 56.8605 161.942C56.8248 161.811 56.8406 161.672 56.9048 161.552C56.9689 161.433 57.0766 161.343 57.2054 161.3C67.4783 158.499 72.5335 160.746 73.7365 163.523C74.4773 165.23 73.8177 167.096 72.0891 168.165C72.0062 168.216 71.911 168.243 71.8139 168.243Z" fill="#C98348"/>
<path d="M94.5499 206.8C94.42 206.8 94.2946 206.752 94.1976 206.666C94.1007 206.579 94.039 206.46 94.0243 206.331C93.0435 197.981 88.7009 197.003 84.0971 195.966L83.0917 195.737C82.0651 195.493 78.2904 195.384 75.5317 195.285C73.5491 195.222 72.5013 195.187 72.1803 195.127C72.0916 195.113 72.0078 195.077 71.9369 195.022C71.866 194.966 71.8103 194.894 71.775 194.812C71.7397 194.729 71.726 194.639 71.7352 194.55C71.7444 194.46 71.7762 194.375 71.8275 194.301C71.8875 194.22 73.2704 192.269 74.9637 191.659C75.3165 191.532 75.7151 191.394 76.1455 191.246C78.0964 190.576 80.7669 189.655 82.1427 188.674C82.806 188.205 83.0353 186.702 82.626 185.457C82.4073 184.794 81.8464 183.693 80.5094 183.693H80.46C80.3905 183.697 80.3209 183.687 80.2552 183.664C80.1895 183.641 80.1289 183.606 80.077 183.559C80.0251 183.513 79.9828 183.457 79.9526 183.394C79.9223 183.331 79.9048 183.263 79.9008 183.194C79.8969 183.124 79.9067 183.055 79.9296 182.989C79.9526 182.923 79.9883 182.863 80.0346 182.811C80.081 182.759 80.1371 182.717 80.1998 182.687C80.2625 182.656 80.3305 182.639 80.4 182.635C81.4583 182.511 82.2979 181.404 82.3826 180.056C82.4285 179.35 82.3015 176.994 78.8548 176.133C78.7461 176.106 78.6488 176.045 78.5769 175.959C78.505 175.873 78.4622 175.767 78.4548 175.655C78.4473 175.543 78.4755 175.432 78.5354 175.337C78.5952 175.242 78.6836 175.169 78.7878 175.128C78.9042 175.082 81.61 173.964 81.1232 171.177C80.6364 168.39 77.2673 168.192 71.7958 168.238C71.6554 168.238 71.5208 168.182 71.4216 168.083C71.3223 167.984 71.2666 167.849 71.2666 167.709C71.2666 167.568 71.3223 167.434 71.4216 167.335C71.5208 167.235 71.6554 167.18 71.7958 167.18C76.7735 167.141 81.4795 167.102 82.1745 170.99C82.334 171.841 82.2422 172.72 81.9102 173.52C81.5781 174.32 81.0203 175.006 80.3048 175.495C82.7742 176.525 83.5785 178.49 83.4797 180.127C83.4526 180.68 83.3136 181.222 83.0711 181.721C82.8285 182.219 82.4875 182.663 82.0686 183.026C82.8507 183.505 83.4238 184.261 83.6738 185.143C84.1677 186.656 83.9736 188.717 82.7954 189.553C81.2819 190.611 78.5268 191.571 76.5195 192.262C76.0926 192.41 75.6975 192.544 75.3518 192.668C74.5812 193.008 73.8974 193.518 73.3515 194.16C73.9653 194.188 74.7803 194.213 75.5811 194.238C78.5373 194.333 82.2168 194.453 83.3422 194.717L84.337 194.943C88.8737 195.963 94.0137 197.12 95.0826 206.232C95.091 206.301 95.0855 206.372 95.0666 206.439C95.0477 206.506 95.0157 206.569 94.9724 206.624C94.9291 206.678 94.8754 206.724 94.8144 206.758C94.7534 206.792 94.6863 206.813 94.6169 206.821L94.5499 206.8Z" fill="#C98348"/>
<path d="M69.9686 201.404H69.9192C69.8499 201.397 69.7826 201.377 69.7211 201.344C69.6597 201.312 69.6053 201.267 69.561 201.214C69.5168 201.16 69.4836 201.098 69.4633 201.031C69.4431 200.965 69.4362 200.895 69.443 200.825C69.704 198.088 70.5719 195.756 71.8842 194.26C71.9777 194.155 72.1093 194.091 72.2499 194.083C72.3905 194.075 72.5286 194.123 72.6338 194.216C72.7391 194.31 72.8029 194.441 72.8111 194.582C72.8194 194.722 72.7715 194.861 72.6779 194.966C71.5102 196.296 70.7341 198.412 70.4942 200.931C70.4803 201.061 70.419 201.181 70.3219 201.268C70.2249 201.356 70.0991 201.404 69.9686 201.404Z" fill="#C98348"/>
<path d="M58.6305 196.264C58.5434 196.264 58.4577 196.242 58.381 196.201C58.3043 196.16 58.2389 196.1 58.1908 196.028C58.1426 195.955 58.1131 195.872 58.1049 195.785C58.0967 195.698 58.11 195.611 58.1437 195.53C60.345 190.295 66.6104 184.411 71.0095 183.423C75.331 182.456 80.3052 182.626 80.5168 182.633C80.6572 182.635 80.7908 182.693 80.8884 182.794C80.986 182.895 81.0395 183.03 81.0372 183.171C81.0348 183.311 80.9768 183.445 80.8759 183.542C80.7751 183.64 80.6395 183.694 80.4992 183.691H80.478C80.4286 183.691 75.4298 183.518 71.2423 184.457C67.1783 185.367 61.1776 191.054 59.1209 195.94C59.0804 196.036 59.0122 196.118 58.9249 196.176C58.8376 196.234 58.7352 196.265 58.6305 196.264Z" fill="#C98348"/>
<path d="M54.0199 187.283C53.9183 187.282 53.8191 187.252 53.7339 187.197C53.6488 187.142 53.5814 187.063 53.5397 186.97C53.4981 186.878 53.484 186.775 53.499 186.675C53.5141 186.574 53.5578 186.48 53.6248 186.404C58.7577 180.59 63.6154 175.098 78.1675 175.098H79.0106C79.151 175.098 79.2856 175.153 79.3848 175.253C79.4841 175.352 79.5398 175.486 79.5398 175.627C79.5398 175.767 79.4841 175.902 79.3848 176.001C79.2856 176.1 79.151 176.156 79.0106 176.156C64.2681 175.958 59.4985 181.367 54.4326 187.092C54.3823 187.153 54.3192 187.201 54.2478 187.234C54.1764 187.267 54.0985 187.283 54.0199 187.283Z" fill="#C98348"/>
<path d="M49.3915 178.797C49.2955 178.797 49.2014 178.771 49.1192 178.721C49.037 178.672 48.9698 178.601 48.9249 178.516C48.8799 178.431 48.8589 178.336 48.864 178.24C48.8692 178.144 48.9003 178.051 48.954 177.972C56.2565 167.212 65.5628 167.198 71.7223 167.188H71.814C71.9543 167.187 72.0889 167.243 72.1882 167.342C72.2874 167.442 72.3432 167.576 72.3432 167.717C72.3432 167.857 72.2874 167.992 72.1882 168.091C72.0889 168.19 71.9543 168.246 71.814 168.246H71.7223C65.785 168.246 56.8139 168.271 49.8254 178.565C49.7774 178.636 49.7128 178.694 49.6372 178.735C49.5616 178.775 49.4773 178.797 49.3915 178.797Z" fill="#C98348"/>
<path d="M265.89 275.039H247.274L252.711 322.121C252.711 322.121 255.833 326.46 265.894 326.46C275.955 326.46 279.077 322.121 279.077 322.121L284.514 275.039H265.89Z" fill="url(#paint38_linear_1_2163)"/>
<path d="M282.093 274.643L281.035 283.734L280.259 290.462L276.992 318.779C276.992 318.779 274.357 322.441 265.865 322.441C257.374 322.441 254.742 318.779 254.742 318.779L252.583 300.057L251.878 294.028L251.846 293.753L250.643 283.325L249.511 273.521L282.093 274.643Z" fill="url(#paint39_linear_1_2163)"/>
<path d="M284.503 274.132C284.504 275.138 284.427 276.143 284.274 277.138C272.148 279.689 259.623 279.689 247.497 277.138C247.343 276.143 247.267 275.138 247.268 274.132C247.268 273.949 247.268 273.758 247.268 273.575C247.553 263.238 255.777 254.955 265.877 254.955C275.977 254.955 284.2 263.238 284.486 273.575C284.5 273.758 284.503 273.949 284.503 274.132Z" fill="url(#paint40_linear_1_2163)"/>
<path d="M251.032 279.113C250.892 279.113 250.757 279.057 250.658 278.958C250.559 278.859 250.503 278.724 250.503 278.584V272.668C250.503 272.527 250.559 272.393 250.658 272.294C250.757 272.194 250.892 272.139 251.032 272.139C251.172 272.139 251.307 272.194 251.406 272.294C251.506 272.393 251.561 272.527 251.561 272.668V278.584C251.561 278.724 251.506 278.859 251.406 278.958C251.307 279.057 251.172 279.113 251.032 279.113Z" fill="#C5E0E2"/>
<path d="M255.988 279.804C255.848 279.804 255.713 279.748 255.614 279.649C255.515 279.55 255.459 279.415 255.459 279.275V272.664C255.459 272.524 255.515 272.389 255.614 272.29C255.713 272.191 255.848 272.135 255.988 272.135C256.128 272.135 256.263 272.191 256.362 272.29C256.462 272.389 256.517 272.524 256.517 272.664V279.275C256.517 279.415 256.462 279.55 256.362 279.649C256.263 279.748 256.128 279.804 255.988 279.804Z" fill="#C5E0E2"/>
<path d="M260.928 280.207C260.787 280.207 260.653 280.151 260.553 280.052C260.454 279.952 260.398 279.818 260.398 279.678V272.668C260.398 272.527 260.454 272.393 260.553 272.294C260.653 272.194 260.787 272.139 260.928 272.139C261.068 272.139 261.203 272.194 261.302 272.294C261.401 272.393 261.457 272.527 261.457 272.668V279.678C261.457 279.818 261.401 279.952 261.302 280.052C261.203 280.151 261.068 280.207 260.928 280.207Z" fill="#C5E0E2"/>
<path d="M265.888 280.337C265.747 280.337 265.613 280.281 265.513 280.182C265.414 280.083 265.358 279.948 265.358 279.808V272.664C265.358 272.524 265.414 272.389 265.513 272.29C265.613 272.191 265.747 272.135 265.888 272.135C266.028 272.135 266.162 272.191 266.262 272.29C266.361 272.389 266.417 272.524 266.417 272.664V279.808C266.417 279.948 266.361 280.083 266.262 280.182C266.162 280.281 266.028 280.337 265.888 280.337Z" fill="#C5E0E2"/>
<path d="M270.844 280.207C270.703 280.207 270.569 280.151 270.469 280.052C270.37 279.952 270.314 279.818 270.314 279.678V272.668C270.314 272.527 270.37 272.393 270.469 272.294C270.569 272.194 270.703 272.139 270.844 272.139C270.984 272.139 271.119 272.194 271.218 272.294C271.317 272.393 271.373 272.527 271.373 272.668V279.678C271.373 279.818 271.317 279.952 271.218 280.052C271.119 280.151 270.984 280.207 270.844 280.207Z" fill="#C5E0E2"/>
<path d="M275.797 279.804C275.656 279.804 275.522 279.748 275.423 279.649C275.323 279.55 275.268 279.415 275.268 279.275V272.664C275.268 272.524 275.323 272.389 275.423 272.29C275.522 272.191 275.656 272.135 275.797 272.135C275.937 272.135 276.072 272.191 276.171 272.29C276.27 272.389 276.326 272.524 276.326 272.664V279.275C276.326 279.415 276.27 279.55 276.171 279.649C276.072 279.748 275.937 279.804 275.797 279.804Z" fill="#C5E0E2"/>
<path d="M280.75 279.113C280.61 279.113 280.475 279.057 280.376 278.958C280.276 278.859 280.221 278.724 280.221 278.584V272.668C280.221 272.527 280.276 272.393 280.376 272.294C280.475 272.194 280.61 272.139 280.75 272.139C280.89 272.139 281.025 272.194 281.124 272.294C281.223 272.393 281.279 272.527 281.279 272.668V278.584C281.279 278.724 281.223 278.859 281.124 278.958C281.025 279.057 280.89 279.113 280.75 279.113Z" fill="#C5E0E2"/>
<path d="M284.496 273.575C272.228 276.19 259.546 276.19 247.278 273.575C247.564 263.238 255.787 254.955 265.887 254.955C275.987 254.955 284.211 263.238 284.496 273.575Z" fill="url(#paint41_linear_1_2163)"/>
<path d="M273.906 295.747C273.906 295.747 259.442 304.442 252.608 300.054L251.903 294.025L251.871 293.75C256.253 291.132 265.989 290.286 273.906 295.747Z" fill="url(#paint42_linear_1_2163)"/>
<path d="M280.281 290.456L277.014 318.773C277.014 318.773 274.379 322.435 265.887 322.435C257.396 322.435 254.764 318.773 254.764 318.773L251.91 294.022C253.145 295.892 255.907 298.305 261.534 296.608C268.875 294.407 273.793 289.397 280.281 290.456Z" fill="url(#paint43_linear_1_2163)"/>
<path d="M239.122 265.57L237.82 274.418V274.457L235.351 291.365L234.497 297.183L232.49 310.842C232.49 310.842 231.079 312.532 227 314.229C222.922 315.926 216.16 317.623 205.446 317.651H205.188C183.761 317.598 178.144 310.842 178.144 310.842L175.287 291.365L172.796 274.432L171.498 265.584L239.122 265.57Z" fill="url(#paint44_linear_1_2163)"/>
<path d="M205.312 274.132C225.282 274.132 241.472 269.236 241.472 263.196C241.472 257.156 225.282 252.26 205.312 252.26C185.342 252.26 169.152 257.156 169.152 263.196C169.152 269.236 185.342 274.132 205.312 274.132Z" fill="url(#paint45_linear_1_2163)"/>
<path d="M205.312 271.183C223.965 271.183 239.087 267.607 239.087 263.196C239.087 258.785 223.965 255.209 205.312 255.209C186.659 255.209 171.537 258.785 171.537 263.196C171.537 267.607 186.659 271.183 205.312 271.183Z" fill="url(#paint46_linear_1_2163)"/>
<path d="M190.206 265.21C196.623 263.799 200.341 263.407 203.1 264.702C205.859 265.997 211.32 267.122 214.474 264.561C217.627 262 218.414 264.748 222.355 265.005C226.295 265.263 229.449 262.561 229.562 259.52C229.675 256.479 215.43 252.256 215.43 252.256C215.43 252.256 194.933 255.692 190.206 265.21Z" fill="url(#paint47_linear_1_2163)"/>
<path d="M220.996 251.004C224.111 247.695 229.343 246.887 231.65 254.119C233.957 261.351 231.033 264.202 229.805 263.775C228.136 263.193 229.353 261.016 227.276 260.741C225.198 260.466 224.453 259.122 224.101 255.802C223.977 254.82 223.634 253.879 223.097 253.048C222.559 252.218 221.841 251.519 220.996 251.004Z" fill="url(#paint48_linear_1_2163)"/>
<path d="M208.659 252.564C209.04 256.653 214.17 254.003 216.727 256.885C218.907 259.355 220.005 258.081 222.492 258.081C224.979 258.081 224.562 261.514 226.199 260.237C227.314 259.369 226.739 249.47 220.869 247.015C213.859 244.087 208.225 247.918 208.659 252.564Z" fill="url(#paint49_linear_1_2163)"/>
<path d="M237.82 274.418V274.457L235.351 291.365C227.254 295.285 216.777 297.648 205.329 297.648C193.882 297.648 183.401 295.285 175.308 291.365L172.817 274.432C181.189 279.117 192.668 282.006 205.329 282.006C217.991 282.006 229.449 279.099 237.82 274.418Z" fill="url(#paint50_linear_1_2163)"/>
<path d="M237.817 274.457L234.483 297.179C231.568 296.847 228.89 295.411 226.999 293.167C225.108 290.922 224.148 288.04 224.315 285.11C224.481 282.18 225.763 279.425 227.897 277.41C230.03 275.395 232.854 274.273 235.788 274.273C236.469 274.273 237.148 274.335 237.817 274.457Z" fill="url(#paint51_linear_1_2163)"/>
<path d="M185.882 268.767C181.564 269.194 178.473 266.509 178.17 262.121C177.866 257.732 186.636 252.525 190.711 250.772C194.786 249.019 210.819 249.04 212.894 250.867C214.693 252.441 213.031 257.905 202.988 260.869C190.976 264.414 192.221 268.139 185.882 268.767Z" fill="url(#paint52_linear_1_2163)"/>
<path d="M190.199 249.652C195.953 246.961 201.989 248.636 201.008 252.256C200.028 255.875 188.224 259.46 185.486 258.676C182.519 257.84 185.994 251.624 190.199 249.652Z" fill="url(#paint53_linear_1_2163)"/>
<path d="M258.273 233.32L263.592 232.4L277.185 311.018C277.256 311.424 277.162 311.842 276.924 312.179C276.686 312.516 276.324 312.745 275.917 312.816L273.661 313.206C273.255 313.276 272.837 313.182 272.5 312.944C272.162 312.706 271.934 312.344 271.863 311.938L258.27 233.32L258.273 233.32Z" fill="url(#paint54_linear_1_2163)"/>
<path d="M273.782 291.235C272.046 291.91 270.351 292.685 268.706 293.556L258.288 233.306L263.604 232.385L273.782 291.235Z" fill="url(#paint55_linear_1_2163)"/>
<path d="M265.887 254.954C264.614 254.953 263.344 255.085 262.098 255.349L258.288 233.311L263.604 232.391L267.52 255.028C266.984 254.979 266.44 254.954 265.887 254.954Z" fill="url(#paint56_linear_1_2163)"/>
<path d="M294.025 258.207C293.897 258.208 293.774 258.163 293.677 258.08C293.58 257.996 293.516 257.881 293.498 257.755C293.479 257.628 293.507 257.5 293.576 257.392C293.645 257.285 293.751 257.206 293.873 257.17L305.942 253.579C306.076 253.539 306.222 253.554 306.345 253.62C306.469 253.687 306.561 253.8 306.601 253.935C306.642 254.07 306.627 254.215 306.56 254.339C306.493 254.462 306.38 254.555 306.245 254.595L294.177 258.186C294.127 258.201 294.076 258.208 294.025 258.207Z" fill="#B68B2D"/>
<path d="M154.72 264.133C154.625 264.134 154.531 264.108 154.449 264.059C138.732 254.665 116.299 249.726 116.074 249.677C116.004 249.663 115.938 249.636 115.88 249.597C115.821 249.558 115.771 249.507 115.732 249.448C115.693 249.389 115.666 249.323 115.653 249.254C115.641 249.184 115.642 249.113 115.657 249.044C115.672 248.975 115.701 248.91 115.741 248.852C115.782 248.794 115.834 248.745 115.894 248.708C115.953 248.671 116.02 248.646 116.09 248.634C116.16 248.623 116.231 248.626 116.299 248.643C116.522 248.692 138.299 253.487 154.107 262.631C151.99 237.957 149.302 208.359 149.277 208.059C149.264 207.919 149.308 207.779 149.398 207.671C149.489 207.563 149.618 207.495 149.759 207.483C149.899 207.47 150.038 207.514 150.147 207.604C150.255 207.694 150.323 207.824 150.335 207.964C150.364 208.268 153.112 238.688 155.253 263.558C155.259 263.631 155.251 263.705 155.227 263.774C155.203 263.843 155.166 263.907 155.116 263.961C155.067 264.015 155.007 264.058 154.94 264.088C154.873 264.118 154.801 264.133 154.727 264.133H154.72Z" fill="#B68B2D"/>
<defs>
<linearGradient id="paint0_linear_1_2163" x1="448.767" y1="222.749" x2="446.453" y2="212.512" gradientUnits="userSpaceOnUse">
<stop stop-color="#C98348"/>
<stop offset="1" stop-color="#D2A651"/>
</linearGradient>
<linearGradient id="paint1_linear_1_2163" x1="420.255" y1="224.03" x2="409.21" y2="211.263" gradientUnits="userSpaceOnUse">
<stop stop-color="#C98348"/>
<stop offset="1" stop-color="#D2A651"/>
</linearGradient>
<linearGradient id="paint2_linear_1_2163" x1="489.767" y1="264.744" x2="476.848" y2="258.772" gradientUnits="userSpaceOnUse">
<stop stop-color="#C98348"/>
<stop offset="1" stop-color="#D2A651"/>
</linearGradient>
<linearGradient id="paint3_linear_1_2163" x1="457.106" y1="276.054" x2="429.576" y2="249.575" gradientUnits="userSpaceOnUse">
<stop stop-color="#C98348"/>
<stop offset="1" stop-color="#D2A651"/>
</linearGradient>
<linearGradient id="paint4_linear_1_2163" x1="411.094" y1="298.06" x2="452.792" y2="280.58" gradientUnits="userSpaceOnUse">
<stop stop-color="#51823B"/>
<stop offset="1" stop-color="#AAC76F"/>
</linearGradient>
<linearGradient id="paint5_linear_1_2163" x1="380.783" y1="246.057" x2="428.306" y2="311.924" gradientUnits="userSpaceOnUse">
<stop stop-color="#DBE8C4"/>
<stop offset="1" stop-color="#AAC76F"/>
</linearGradient>
<linearGradient id="paint6_linear_1_2163" x1="149.016" y1="250.182" x2="142.73" y2="300.766" gradientUnits="userSpaceOnUse">
<stop stop-color="#D2A651"/>
<stop offset="1" stop-color="#B2752C"/>
</linearGradient>
<linearGradient id="paint7_linear_1_2163" x1="247.737" y1="208.251" x2="214.593" y2="258.13" gradientUnits="userSpaceOnUse">
<stop stop-color="#52BEB8"/>
<stop offset="1" stop-color="#308B85"/>
</linearGradient>
<linearGradient id="paint8_linear_1_2163" x1="305.61" y1="200.194" x2="218.802" y2="279.078" gradientUnits="userSpaceOnUse">
<stop stop-color="#F3CE63"/>
<stop offset="1" stop-color="#D2A651"/>
</linearGradient>
<linearGradient id="paint9_linear_1_2163" x1="319.209" y1="181.757" x2="265.972" y2="261.615" gradientUnits="userSpaceOnUse">
<stop stop-color="#F3CE63"/>
<stop offset="1" stop-color="#D2A651"/>
</linearGradient>
<linearGradient id="paint10_linear_1_2163" x1="292.776" y1="154.339" x2="313.544" y2="173.374" gradientUnits="userSpaceOnUse">
<stop stop-color="white"/>
<stop offset="1" stop-color="#DDF1F3"/>
</linearGradient>
<linearGradient id="paint11_linear_1_2163" x1="263.75" y1="63.878" x2="265.916" y2="81.4252" gradientUnits="userSpaceOnUse">
<stop stop-color="#51823B"/>
<stop offset="1" stop-color="#AAC76F"/>
</linearGradient>
<linearGradient id="paint12_linear_1_2163" x1="176.938" y1="74.6087" x2="179.107" y2="92.1523" gradientUnits="userSpaceOnUse">
<stop stop-color="#51823B"/>
<stop offset="1" stop-color="#AAC76F"/>
</linearGradient>
<linearGradient id="paint13_linear_1_2163" x1="230.683" y1="64.6667" x2="221.797" y2="102.495" gradientUnits="userSpaceOnUse">
<stop stop-color="#D2A651"/>
<stop offset="1" stop-color="#B2752C"/>
</linearGradient>
<linearGradient id="paint14_linear_1_2163" x1="370.542" y1="55.3116" x2="398.383" y2="106.687" gradientUnits="userSpaceOnUse">
<stop stop-color="white"/>
<stop offset="1" stop-color="#DDF1F3"/>
</linearGradient>
<linearGradient id="paint15_linear_1_2163" x1="232.909" y1="28.6019" x2="224.383" y2="69.4182" gradientUnits="userSpaceOnUse">
<stop stop-color="#DBE8C4"/>
<stop offset="1" stop-color="#AAC76F"/>
</linearGradient>
<linearGradient id="paint16_linear_1_2163" x1="225.067" y1="48.7137" x2="221.028" y2="62.3732" gradientUnits="userSpaceOnUse">
<stop stop-color="white"/>
<stop offset="1" stop-color="#DDF1F3"/>
</linearGradient>
<linearGradient id="paint17_linear_1_2163" x1="251.963" y1="147.323" x2="236.731" y2="158.855" gradientUnits="userSpaceOnUse">
<stop stop-color="#F3CE63"/>
<stop offset="1" stop-color="#D2A651"/>
</linearGradient>
<linearGradient id="paint18_linear_1_2163" x1="100.816" y1="130.287" x2="80.3475" y2="111.064" gradientUnits="userSpaceOnUse">
<stop stop-color="#51823B"/>
<stop offset="1" stop-color="#AAC76F"/>
</linearGradient>
<linearGradient id="paint19_linear_1_2163" x1="115.738" y1="88.1793" x2="120.801" y2="94.1624" gradientUnits="userSpaceOnUse">
<stop stop-color="#E94E4E"/>
<stop offset="1" stop-color="#D33332"/>
</linearGradient>
<linearGradient id="paint20_linear_1_2163" x1="80.0759" y1="138.393" x2="76.3894" y2="157.817" gradientUnits="userSpaceOnUse">
<stop stop-color="#E8E8EB"/>
<stop offset="1" stop-color="#D3D3D3"/>
</linearGradient>
<linearGradient id="paint21_linear_1_2163" x1="102.992" y1="174.967" x2="104.135" y2="172.074" gradientUnits="userSpaceOnUse">
<stop stop-color="#C98348"/>
<stop offset="1" stop-color="#DD9127"/>
</linearGradient>
<linearGradient id="paint22_linear_1_2163" x1="106.182" y1="166.177" x2="105.804" y2="173.374" gradientUnits="userSpaceOnUse">
<stop stop-color="white"/>
<stop offset="1" stop-color="#DDF1F3"/>
</linearGradient>
<linearGradient id="paint23_linear_1_2163" x1="105.377" y1="163.3" x2="105.705" y2="168.768" gradientUnits="userSpaceOnUse">
<stop stop-color="#E94E4E"/>
<stop offset="1" stop-color="#D33332"/>
</linearGradient>
<linearGradient id="paint24_linear_1_2163" x1="406.48" y1="231.791" x2="415.691" y2="253.321" gradientUnits="userSpaceOnUse">
<stop stop-color="#DBE8C4"/>
<stop offset="1" stop-color="#AAC76F"/>
</linearGradient>
<linearGradient id="paint25_linear_1_2163" x1="409.262" y1="249.96" x2="414.695" y2="258.377" gradientUnits="userSpaceOnUse">
<stop stop-color="white"/>
<stop offset="1" stop-color="#DDF1F3"/>
</linearGradient>
<linearGradient id="paint26_linear_1_2163" x1="412.66" y1="300.291" x2="409.284" y2="273.476" gradientUnits="userSpaceOnUse">
<stop stop-color="#51823B"/>
<stop offset="1" stop-color="#AAC76F"/>
</linearGradient>
<linearGradient id="paint27_linear_1_2163" x1="404.729" y1="272.242" x2="410.381" y2="288.953" gradientUnits="userSpaceOnUse">
<stop stop-color="white"/>
<stop offset="1" stop-color="#DDF1F3"/>
</linearGradient>
<linearGradient id="paint28_linear_1_2163" x1="332.05" y1="65.3643" x2="331.853" y2="90.9124" gradientUnits="userSpaceOnUse">
<stop stop-color="#F3CE63"/>
<stop offset="1" stop-color="#D2A651"/>
</linearGradient>
<linearGradient id="paint29_linear_1_2163" x1="358.667" y1="65.5725" x2="358.47" y2="91.1206" gradientUnits="userSpaceOnUse">
<stop stop-color="#F3CE63"/>
<stop offset="1" stop-color="#D2A651"/>
</linearGradient>
<linearGradient id="paint30_linear_1_2163" x1="385.289" y1="65.7806" x2="385.087" y2="91.3287" gradientUnits="userSpaceOnUse">
<stop stop-color="#F3CE63"/>
<stop offset="1" stop-color="#D2A651"/>
</linearGradient>
<linearGradient id="paint31_linear_1_2163" x1="411.905" y1="65.9887" x2="411.704" y2="91.5368" gradientUnits="userSpaceOnUse">
<stop stop-color="#F3CE63"/>
<stop offset="1" stop-color="#D2A651"/>
</linearGradient>
<linearGradient id="paint32_linear_1_2163" x1="439.281" y1="68.811" x2="432.384" y2="49.4294" gradientUnits="userSpaceOnUse">
<stop stop-color="#53BEB8"/>
<stop offset="1" stop-color="#53BEB8" stop-opacity="0"/>
</linearGradient>
<linearGradient id="paint33_linear_1_2163" x1="438.522" y1="62.7125" x2="438.321" y2="88.2606" gradientUnits="userSpaceOnUse">
<stop stop-color="#F3CE63"/>
<stop offset="1" stop-color="#D2A651"/>
</linearGradient>
<linearGradient id="paint34_linear_1_2163" x1="257.915" y1="295.77" x2="257.312" y2="340.139" gradientUnits="userSpaceOnUse">
<stop stop-color="white"/>
<stop offset="1" stop-color="#DDF1F3"/>
</linearGradient>
<linearGradient id="paint35_linear_1_2163" x1="143.84" y1="149.341" x2="161.317" y2="297.355" gradientUnits="userSpaceOnUse">
<stop stop-color="#F3CE63"/>
<stop offset="1" stop-color="#D2A651"/>
</linearGradient>
<linearGradient id="paint36_linear_1_2163" x1="114.972" y1="193.772" x2="153.09" y2="223.243" gradientUnits="userSpaceOnUse">
<stop stop-color="#F3CE63"/>
<stop offset="1" stop-color="#D2A651"/>
</linearGradient>
<linearGradient id="paint37_linear_1_2163" x1="169.565" y1="142.633" x2="191.631" y2="164.699" gradientUnits="userSpaceOnUse">
<stop stop-color="#F3CE63"/>
<stop offset="1" stop-color="#D2A651"/>
</linearGradient>
<linearGradient id="paint38_linear_1_2163" x1="352.338" y1="450.821" x2="381.944" y2="504.644" gradientUnits="userSpaceOnUse">
<stop stop-color="white"/>
<stop offset="1" stop-color="#DDF1F3"/>
</linearGradient>
<linearGradient id="paint39_linear_1_2163" x1="265.827" y1="292.201" x2="265.827" y2="273.895" gradientUnits="userSpaceOnUse">
<stop stop-color="white"/>
<stop offset="1" stop-color="#DDF1F3"/>
</linearGradient>
<linearGradient id="paint40_linear_1_2163" x1="265.887" y1="281.999" x2="265.887" y2="269.056" gradientUnits="userSpaceOnUse">
<stop stop-color="white"/>
<stop offset="1" stop-color="#DDF1F3"/>
</linearGradient>
<linearGradient id="paint41_linear_1_2163" x1="264.974" y1="273.465" x2="275.06" y2="252.673" gradientUnits="userSpaceOnUse">
<stop stop-color="white"/>
<stop offset="1" stop-color="#DDF1F3"/>
</linearGradient>
<linearGradient id="paint42_linear_1_2163" x1="263.753" y1="288.511" x2="262.79" y2="295.507" gradientUnits="userSpaceOnUse">
<stop stop-color="#D2A651"/>
<stop offset="1" stop-color="#B2752C"/>
</linearGradient>
<linearGradient id="paint43_linear_1_2163" x1="263.323" y1="300.055" x2="273.885" y2="311.559" gradientUnits="userSpaceOnUse">
<stop offset="0.04" stop-color="#654B1E"/>
<stop offset="1" stop-color="#2E1D12"/>
</linearGradient>
<linearGradient id="paint44_linear_1_2163" x1="179.76" y1="301.518" x2="234.867" y2="269.045" gradientUnits="userSpaceOnUse">
<stop stop-color="#E8E8EB"/>
<stop offset="1" stop-color="#D3D3D3"/>
</linearGradient>
<linearGradient id="paint45_linear_1_2163" x1="218.845" y1="299.169" x2="227.625" y2="322.515" gradientUnits="userSpaceOnUse">
<stop stop-color="#E8E8EB"/>
<stop offset="1" stop-color="#D3D3D3"/>
</linearGradient>
<linearGradient id="paint46_linear_1_2163" x1="207.09" y1="271.359" x2="205.097" y2="262.219" gradientUnits="userSpaceOnUse">
<stop stop-color="#C98348"/>
<stop offset="1" stop-color="#DD9127"/>
</linearGradient>
<linearGradient id="paint47_linear_1_2163" x1="209.288" y1="259.4" x2="211.016" y2="267.806" gradientUnits="userSpaceOnUse">
<stop stop-color="#E94E4E"/>
<stop offset="1" stop-color="#D33332"/>
</linearGradient>
<linearGradient id="paint48_linear_1_2163" x1="223.889" y1="259.083" x2="229.604" y2="253.957" gradientUnits="userSpaceOnUse">
<stop stop-color="#51823B"/>
<stop offset="1" stop-color="#AAC76F"/>
</linearGradient>
<linearGradient id="paint49_linear_1_2163" x1="216.995" y1="248.659" x2="217.577" y2="254.19" gradientUnits="userSpaceOnUse">
<stop stop-color="#F9CBA2"/>
<stop offset="1" stop-color="#FCD7BA"/>
</linearGradient>
<linearGradient id="paint50_linear_1_2163" x1="176.352" y1="234.614" x2="205.019" y2="280.436" gradientUnits="userSpaceOnUse">
<stop stop-color="#E8E8EB"/>
<stop offset="1" stop-color="#D3D3D3"/>
</linearGradient>
<linearGradient id="paint51_linear_1_2163" x1="236.272" y1="278.482" x2="227.96" y2="292.233" gradientUnits="userSpaceOnUse">
<stop stop-color="white"/>
<stop offset="1" stop-color="#DDF1F3"/>
</linearGradient>
<linearGradient id="paint52_linear_1_2163" x1="196.147" y1="258.353" x2="200.991" y2="270.196" gradientUnits="userSpaceOnUse">
<stop stop-color="#FFF1E0"/>
<stop offset="1" stop-color="#ECDE74"/>
</linearGradient>
<linearGradient id="paint53_linear_1_2163" x1="191.367" y1="247.92" x2="192.513" y2="253.233" gradientUnits="userSpaceOnUse">
<stop stop-color="#FFF1E0"/>
<stop offset="1" stop-color="#ECDE74"/>
</linearGradient>
<linearGradient id="paint54_linear_1_2163" x1="267.106" y1="278.903" x2="264.414" y2="306.003" gradientUnits="userSpaceOnUse">
<stop offset="0.04" stop-color="#654B1E"/>
<stop offset="1" stop-color="#2E1D12"/>
</linearGradient>
<linearGradient id="paint55_linear_1_2163" x1="295.189" y1="231.422" x2="283.79" y2="243.487" gradientUnits="userSpaceOnUse">
<stop stop-color="white"/>
<stop offset="1" stop-color="#DDF1F3"/>
</linearGradient>
<linearGradient id="paint56_linear_1_2163" x1="272.815" y1="235.686" x2="240.826" y2="263.068" gradientUnits="userSpaceOnUse">
<stop stop-color="white"/>
<stop offset="1" stop-color="#DDF1F3"/>
</linearGradient>
</defs>
</svg>
