<svg width="17" height="16" viewBox="0 0 17 16" fill="none" xmlns="http://www.w3.org/2000/svg">
<path d="M9.59868 1.39199L10.2973 3.54222C10.6004 4.4751 11.4698 5.10671 12.4507 5.10671H14.7115C15.9362 5.10671 16.4453 6.67377 15.4546 7.39357L13.6255 8.72249C12.8319 9.29904 12.4999 10.321 12.803 11.2539L13.5017 13.4041C13.8801 14.5688 12.5471 15.5373 11.5563 14.8175L9.72724 13.4886C8.93368 12.912 7.85913 12.912 7.06557 13.4886L5.23648 14.8175C4.24575 15.5373 2.91273 14.5688 3.29115 13.4041L3.9898 11.2539C4.29292 10.321 3.96086 9.29904 3.1673 8.72249L1.33821 7.39357C0.34748 6.67377 0.856647 5.10671 2.08126 5.10671H4.34214C5.32303 5.10671 6.19236 4.4751 6.49548 3.54222L7.19413 1.39199C7.57255 0.227317 9.22025 0.227316 9.59868 1.39199Z" fill="white" stroke="#FF8A00"/>
</svg>
